<svg width="32" height="32" viewBox="0 0 32 32" fill="none" xmlns="http://www.w3.org/2000/svg">
<path d="M20.1504 12.5499C19.4567 12.7931 18.6667 12.3137 18.6667 11.5786V11.5786C18.6667 11.1874 18.8994 10.8306 19.2672 10.6974C19.8083 10.5014 20.3583 10.3467 20.9174 10.2334C21.6836 10.0778 22.4889 10 23.3334 10C23.9112 10 24.4778 10.0445 25.0334 10.1334C25.3378 10.1821 25.6389 10.2375 25.9366 10.2995C26.3676 10.3893 26.6667 10.7755 26.6667 11.2157V11.2157C26.6667 11.8855 25.9948 12.3503 25.3402 12.2085C25.2439 12.1877 25.1474 12.1684 25.0507 12.1507C24.5058 12.0503 23.9334 12 23.3334 12C22.4889 12 21.6778 12.1058 20.9 12.3174C20.6466 12.386 20.3967 12.4635 20.1504 12.5499ZM20.1531 19.8598C19.4633 20.1014 18.6667 19.6303 18.6667 18.8994V18.8994C18.6667 18.5158 18.8949 18.166 19.2553 18.035C19.8003 17.837 20.3543 17.6809 20.9174 17.5667C21.6836 17.4112 22.4889 17.3334 23.3334 17.3334C23.9112 17.3334 24.4778 17.3778 25.0334 17.4667C25.3378 17.5154 25.6389 17.5708 25.9366 17.6328C26.3676 17.7227 26.6667 18.1089 26.6667 18.5491V18.5491C26.6667 19.2189 25.9948 19.6836 25.3402 19.5419C25.2439 19.521 25.1474 19.5017 25.0507 19.484C24.5058 19.3836 23.9334 19.3334 23.3334 19.3334C22.4889 19.3334 21.6778 19.4334 20.9 19.6334C20.6476 19.6983 20.3986 19.7738 20.1531 19.8598ZM20.1504 16.2166C19.4567 16.4598 18.6667 15.9804 18.6667 15.2453V15.2453C18.6667 14.8541 18.8994 14.4973 19.2672 14.364C19.8083 14.1681 20.3583 14.0134 20.9174 13.9C21.6836 13.7445 22.4889 13.6667 23.3334 13.6667C23.9112 13.6667 24.4778 13.7112 25.0334 13.8C25.3378 13.8487 25.6389 13.9041 25.9366 13.9662C26.3676 14.056 26.6667 14.4422 26.6667 14.8824V14.8824C26.6667 15.5522 25.9948 16.017 25.3402 15.8752C25.2439 15.8543 25.1474 15.8351 25.0507 15.8174C24.5058 15.7169 23.9334 15.6667 23.3334 15.6667C22.4889 15.6667 21.6778 15.7725 20.9 15.984C20.6466 16.0527 20.3967 16.1302 20.1504 16.2166ZM17.3334 19.5953C17.3334 21.0509 18.8674 22.0175 20.284 21.6827V21.6827C21.2725 21.4498 22.2889 21.3334 23.3334 21.3334C24.1334 21.3334 24.9169 21.4 25.684 21.5334V21.5334C26.8405 21.7346 28 20.9122 28 19.7384V10.2574C28 9.45471 27.5242 8.71403 26.7541 8.48741C26.414 8.38731 26.0684 8.30263 25.7174 8.23337C24.928 8.07782 24.1334 8.00004 23.3334 8.00004C22.2889 8.00004 21.2556 8.13337 20.2334 8.40004C19.5831 8.56967 18.9554 8.79324 18.3501 9.07076C17.7045 9.36679 17.3334 10.0365 17.3334 10.7468V19.5953ZM17.2968 25.7599C16.5057 26.2445 15.4944 26.2445 14.7033 25.7599C14.0128 25.3369 13.2895 24.9836 12.5334 24.7C11.2889 24.2334 10 24 8.66671 24C7.48893 24 6.2556 24.2223 4.96671 24.6667V24.6667C3.38219 25.2131 1.33337 24.207 1.33337 22.5309V8.45705C1.33337 7.79572 1.65417 7.16512 2.23768 6.85388C3.0003 6.4471 3.84909 6.11804 4.78404 5.86671C6.10582 5.51115 7.40004 5.33337 8.66671 5.33337C9.9556 5.33337 11.2169 5.50004 12.4507 5.83337C13.3127 6.06644 14.1504 6.38098 14.9638 6.77699C15.6166 7.09488 16.3834 7.09487 17.0363 6.77704C17.8499 6.381 18.688 6.06645 19.5507 5.83337C20.7836 5.50004 22.0445 5.33337 23.3334 5.33337C24.6 5.33337 25.8947 5.51115 27.2174 5.86671C28.1517 6.11803 29 6.44707 29.7624 6.85383C30.3459 7.16513 30.6667 7.79572 30.6667 8.45705V22.5444C30.6667 24.203 28.62 25.2034 27.0507 24.6667V24.6667C25.7503 24.2223 24.5112 24 23.3334 24C22 24 20.7112 24.2334 19.4667 24.7C18.7106 24.9836 17.9873 25.3369 17.2968 25.7599Z" fill="url(#paint0_linear_21_117)"/>
<defs>
<linearGradient id="paint0_linear_21_117" x1="16" y1="5.33337" x2="16" y2="26.7334" gradientUnits="userSpaceOnUse">
<stop stop-color="#44DB4F"/>
<stop offset="1" stop-color="#9CFFA3"/>
</linearGradient>
</defs>
</svg>
