<svg width="32" height="32" viewBox="0 0 32 32" fill="none" xmlns="http://www.w3.org/2000/svg">
<rect width="32" height="32" fill="white"/>
<g filter="url(#filter0_d_203_218)">
<g filter="url(#filter1_ddii_203_218)">
<path d="M5.76969 7.11171C5.24712 7.11171 4.82349 7.53534 4.82349 8.05791V18.5611C4.82349 18.6283 4.79487 18.6924 4.74479 18.7372L2.62305 20.6381C2.18241 21.0259 1.9331 21.5516 1.92944 22.1009C1.93249 22.6438 2.178 23.1636 2.61262 23.5474C3.04724 23.9312 3.63583 24.1481 4.25047 24.1507H26.6195C27.2342 24.1481 27.8228 23.9312 28.2574 23.5474C28.692 23.1636 28.9375 22.6438 28.9406 22.1009C28.9368 21.5512 28.6875 21.0249 28.247 20.6364L26.1253 18.7364C26.0751 18.6915 26.0465 18.6274 26.0465 18.5602V8.05791C26.0465 7.53534 25.6229 7.11171 25.1003 7.11171H5.76969ZM6.75286 9.05216C6.75286 8.92152 6.85876 8.81561 6.98941 8.81561H23.8806C24.0112 8.81561 24.1171 8.92152 24.1171 9.05216V17.9505C24.1171 18.0812 24.0112 18.1871 23.8806 18.1871H6.98941C6.85876 18.1871 6.75286 18.0812 6.75286 17.9505V9.05216ZM6.20974 19.891H24.5707C24.6278 19.891 24.683 19.9116 24.7261 19.9492L26.8906 21.8343C26.9672 21.9067 27.0103 22.0019 27.0112 22.1009C27.014 22.147 27.0057 22.1931 26.9871 22.2362C26.9684 22.2792 26.9396 22.3184 26.9027 22.351C26.8657 22.3836 26.8214 22.409 26.7726 22.4255C26.7239 22.442 26.6717 22.4493 26.6195 22.4468H4.25047C4.1983 22.4493 4.14614 22.442 4.09736 22.4255C4.04858 22.409 4.00428 22.3836 3.96735 22.351C3.93041 22.3184 3.90165 22.2792 3.88295 22.2362C3.86425 22.1931 3.85603 22.147 3.85881 22.1009C3.85881 22.0072 3.90415 21.9016 3.97939 21.8343L6.20998 19.8916C6.21023 19.8914 6.21007 19.891 6.20974 19.891V19.891Z" fill="#F2D469"/>
<path d="M2.68224 20.7042L2.68165 20.7047C2.25867 21.0769 2.02179 21.5791 2.01815 22.101C2.0212 22.6165 2.25434 23.1126 2.67134 23.4809C3.08873 23.8495 3.65606 24.0593 4.25047 24.062C4.2506 24.062 4.25073 24.062 4.25086 24.062M2.68224 20.7042L4.25047 24.1507L4.25086 24.062M2.68224 20.7042L4.80398 18.8033C4.87285 18.7416 4.9122 18.6535 4.9122 18.5611V8.05791C4.9122 7.58433 5.29611 7.20042 5.76969 7.20042H25.1003C25.5739 7.20042 25.9578 7.58433 25.9578 8.05791V18.5602C25.9578 18.6527 25.9972 18.7408 26.0661 18.8025L28.1878 20.7025L28.1883 20.703C28.6112 21.0759 28.8481 21.5785 28.8519 22.1009L2.68224 20.7042ZM4.25086 24.062H26.6191M4.25086 24.062H26.6191M26.6191 24.062L26.6195 24.062L26.6191 24.062ZM3.77011 22.0983C3.76695 22.1576 3.77778 22.2167 3.80158 22.2715C3.82571 22.3271 3.86244 22.3767 3.90863 22.4175C3.95479 22.4582 4.00949 22.4894 4.06891 22.5095C4.12765 22.5294 4.19011 22.5382 4.25245 22.5355H26.6175C26.6799 22.5382 26.7424 22.5294 26.8011 22.5095C26.8605 22.4894 26.9152 22.4582 26.9614 22.4175C27.0076 22.3767 27.0443 22.3271 27.0684 22.2715C27.0923 22.2165 27.1031 22.1574 27.0999 22.0979C27.0981 21.9739 27.0439 21.8571 26.9515 21.7698L26.9516 21.7698L26.9489 21.7674L24.7843 19.8823C24.7251 19.8307 24.6493 19.8023 24.5707 19.8023H6.20974C6.18363 19.8023 6.16015 19.8136 6.14391 19.8315L3.92114 21.7674L3.92113 21.7674L3.92026 21.7682C3.82678 21.8518 3.77094 21.9802 3.77011 22.0983ZM3.77011 22.0983C3.77016 22.0974 3.77021 22.0965 3.77026 22.0956L3.85881 22.1009M3.77011 22.0983C3.77011 22.0992 3.7701 22.1001 3.7701 22.1009H3.85881M3.85881 22.1009C3.85603 22.147 3.86425 22.1931 3.88295 22.2362C3.90165 22.2792 3.93041 22.3184 3.96734 22.351C4.00428 22.3836 4.04858 22.409 4.09736 22.4255C4.14614 22.442 4.1983 22.4493 4.25047 22.4468M3.85881 22.1009C3.85881 22.0072 3.90415 21.9016 3.97939 21.8343L6.14322 19.9498M6.14322 19.9498L6.14326 19.9497C6.14222 19.9485 6.14121 19.9473 6.14023 19.9461C6.14119 19.9473 6.14219 19.9486 6.14322 19.9498Z" stroke="white" stroke-width="0.177413" stroke-linejoin="round"/>
</g>
<g filter="url(#filter2_dii_203_218)">
<path d="M18.3372 16.5082L18.198 16.3031L22.2043 13.4174L18.198 10.539L18.3372 10.3339L22.49 13.3222V13.5199L18.3372 16.5082Z" fill="#FFFDED"/>
<path d="M18.3372 16.5082L18.4454 16.6587L18.1837 16.6123L18.3372 16.5082ZM18.198 16.3031L18.0446 16.4073L18.0896 16.1527L18.198 16.3031ZM22.2043 13.4174L22.3125 13.2668L22.3127 13.5678L22.2043 13.4174ZM18.198 10.539L18.0898 10.6896L18.0446 10.4349L18.198 10.539ZM18.3372 10.3339L18.1837 10.2298L18.4454 10.1834L18.3372 10.3339ZM22.49 13.3222L22.5983 13.1717L22.6754 13.3222H22.49ZM22.49 13.5199H22.6754L22.5983 13.6704L22.49 13.5199ZM18.1837 16.6123L18.0446 16.4073L18.3514 16.199L18.4906 16.4041L18.1837 16.6123ZM18.0896 16.1527L22.096 13.267L22.3127 13.5678L18.3064 16.4536L18.0896 16.1527ZM22.0962 13.568L18.0898 10.6896L18.3062 10.3884L22.3125 13.2668L22.0962 13.568ZM18.0446 10.4349L18.1837 10.2298L18.4906 10.438L18.3514 10.6431L18.0446 10.4349ZM18.4454 10.1834L22.5983 13.1717L22.3817 13.4727L18.2289 10.4844L18.4454 10.1834ZM22.6754 13.3222V13.5199H22.3046V13.3222H22.6754ZM22.5983 13.6704L18.4454 16.6587L18.2289 16.3577L22.3817 13.3695L22.5983 13.6704Z" fill="#F2D469"/>
</g>
<g filter="url(#filter3_d_203_218)">
<g filter="url(#filter4_d_203_218)">
<path fill-rule="evenodd" clip-rule="evenodd" d="M14.9791 9.75411C15.0207 9.75614 15.0805 9.76527 15.1109 9.77439C15.1413 9.78352 15.1941 9.80481 15.2275 9.82103C15.265 9.8403 15.3178 9.88086 15.3654 9.92952C15.4171 9.98123 15.4526 10.0279 15.4749 10.0725C15.4922 10.109 15.5135 10.1637 15.5216 10.1942C15.5297 10.2246 15.5368 10.2905 15.5368 10.3412C15.5368 10.3919 15.5297 10.4598 15.5205 10.4933C15.5124 10.5267 15.4881 10.5855 15.4678 10.6251C15.4465 10.6636 15.4029 10.7224 15.3695 10.7569C15.3502 10.7761 15.3226 10.7994 15.2823 10.8277C15.2152 10.8748 15.1707 10.9491 15.1707 11.0311V15.0118C15.1707 15.1398 15.2745 15.2435 15.4025 15.2435H15.9105H19.194H19.2782H16.4579C16.33 15.2435 16.2262 15.1398 16.2262 15.0118L16.2253 11.7969C16.2252 11.7476 16.2064 11.7002 16.1725 11.6644V11.6644C16.137 11.6279 16.1107 11.5873 16.0954 11.5478C16.0782 11.5031 16.0721 11.4666 16.0721 11.4109C16.0721 11.3592 16.0782 11.3166 16.0924 11.2791C16.1056 11.2446 16.134 11.2 16.1674 11.1635C16.2019 11.1249 16.2435 11.0935 16.282 11.0742C16.3236 11.053 16.3641 11.0418 16.4087 11.0388C16.4453 11.0357 16.5 11.0388 16.5304 11.0448C16.5639 11.0509 16.6125 11.0722 16.6501 11.0966C16.6845 11.1189 16.7292 11.1584 16.7484 11.1848C16.7677 11.2121 16.793 11.2628 16.8042 11.2993C16.8153 11.3358 16.8245 11.3865 16.8245 11.4129C16.8245 11.4403 16.8163 11.4879 16.8062 11.5194C16.7961 11.5518 16.7738 11.5984 16.7565 11.6238C16.7515 11.6311 16.7458 11.639 16.7391 11.6474C16.6996 11.6972 16.6714 11.7561 16.6714 11.8196L16.6724 14.7974H19.4925C19.6205 14.7974 19.7243 14.9011 19.7243 15.0291V15.1566C19.7243 15.2846 19.6205 15.3884 19.4925 15.3884H16.6724H14.7865H13.1987H10.4049C10.2769 15.3884 10.1731 15.2846 10.1731 15.1566V15.0291C10.1731 14.9011 10.2769 14.7974 10.4049 14.7974H13.225L13.226 11.7574C13.226 11.7336 13.2161 11.7109 13.1987 11.6948V11.6948C13.1845 11.6806 13.1581 11.6491 13.1409 11.6238C13.1236 11.5984 13.1013 11.5518 13.0912 11.5194C13.081 11.4879 13.0729 11.4403 13.0729 11.4129C13.0729 11.3865 13.0821 11.3358 13.0932 11.2993C13.1044 11.2628 13.1297 11.2121 13.149 11.1848C13.1682 11.1584 13.2128 11.1189 13.2483 11.0966C13.2848 11.0722 13.3335 11.0509 13.367 11.0448C13.3974 11.0388 13.4521 11.0357 13.4886 11.0388C13.5333 11.0418 13.5738 11.053 13.6154 11.0742C13.6539 11.0935 13.6955 11.1249 13.73 11.1635C13.7634 11.2 13.7918 11.2446 13.805 11.2791C13.8192 11.3166 13.8253 11.3592 13.8253 11.4109C13.8253 11.4666 13.8192 11.5031 13.8019 11.5478C13.7912 11.5758 13.7748 11.6043 13.7347 11.6514C13.6961 11.6968 13.6721 11.7534 13.6721 11.813L13.6712 15.0118C13.6712 15.1398 13.5674 15.2435 13.4395 15.2435H10.6192H14.4296V15.2435C14.5561 15.2435 14.6593 15.142 14.6613 15.0154L14.7254 10.9788C14.7262 10.9294 14.7003 10.8833 14.6577 10.8583V10.8583C14.6202 10.836 14.5614 10.7903 14.5279 10.7569C14.4945 10.7224 14.4509 10.6636 14.4296 10.6251C14.4093 10.5855 14.385 10.5267 14.3768 10.4933C14.3677 10.4598 14.3606 10.3919 14.3606 10.3412C14.3606 10.2905 14.3677 10.2246 14.3758 10.1942C14.3839 10.1637 14.4052 10.109 14.4225 10.0725C14.4448 10.0279 14.4803 9.98123 14.532 9.92952C14.5796 9.88187 14.6323 9.8403 14.6699 9.82103C14.7033 9.80481 14.756 9.78352 14.7865 9.77541C14.8169 9.76628 14.8564 9.75716 14.8726 9.75411C14.8889 9.75209 14.9375 9.75209 14.9791 9.75411ZM12.2618 11.8823C12.3084 11.8864 12.349 11.8976 12.3987 11.9219C12.4433 11.9432 12.4849 11.9726 12.5092 12C12.5305 12.0243 12.5599 12.0699 12.5751 12.1003C12.5984 12.149 12.6015 12.1693 12.6015 12.2575C12.6015 12.3498 12.5984 12.365 12.571 12.4197C12.5613 12.4398 12.5458 12.4645 12.5203 12.4956C12.4809 12.5435 12.4544 12.6017 12.4544 12.6638V14.0384C12.4544 14.1664 12.3507 14.2701 12.2227 14.2701H10.9726C10.8447 14.2701 10.7409 14.1664 10.7409 14.0384V13.3258C10.7409 13.2845 10.7245 13.2449 10.6953 13.2157V13.2157C10.6699 13.1903 10.6375 13.1427 10.6213 13.1092C10.5979 13.0565 10.5939 13.0352 10.5939 12.952C10.5939 12.8669 10.5969 12.8486 10.6223 12.7949C10.6395 12.7604 10.674 12.7117 10.7034 12.6834C10.7368 12.6509 10.7784 12.6225 10.8169 12.6073C10.8656 12.588 10.896 12.583 10.969 12.583C11.0461 12.582 11.0684 12.586 11.116 12.6083C11.1465 12.6235 11.1941 12.655 11.2215 12.6793C11.2519 12.7077 11.2813 12.7482 11.3016 12.7898C11.3249 12.8385 11.334 12.875 11.3371 12.9267C11.3401 12.9754 11.3361 13.0169 11.3239 13.0585C11.3138 13.092 11.2955 13.1356 11.2833 13.1548C11.2773 13.1636 11.2685 13.1752 11.2553 13.1904C11.2141 13.2379 11.187 13.2968 11.187 13.3598V13.5923C11.187 13.7203 11.2908 13.824 11.4188 13.824H11.7765C11.9045 13.824 12.0083 13.7203 12.0083 13.5923V12.6062C12.0083 12.5778 11.9966 12.5507 11.9759 12.5313V12.5313C11.9586 12.514 11.9343 12.4866 11.9211 12.4704C11.9089 12.4532 11.8887 12.4116 11.8775 12.3761C11.8653 12.3417 11.8562 12.2889 11.8562 12.2595C11.8562 12.2311 11.8653 12.1774 11.8765 12.1409C11.8876 12.1044 11.911 12.0567 11.9292 12.0334C11.9475 12.0111 11.9769 11.9807 11.9931 11.9665C12.0093 11.9523 12.0397 11.933 12.059 11.9229C12.0783 11.9128 12.1178 11.8986 12.1452 11.8905C12.1746 11.8834 12.2233 11.8803 12.2618 11.8823ZM17.6589 11.8783C17.6741 11.8773 17.7106 11.8823 17.74 11.8884C17.7684 11.8945 17.811 11.9097 17.8333 11.9209C17.8556 11.932 17.8871 11.9523 17.9043 11.9665C17.9215 11.9807 17.9499 12.0111 17.9682 12.0334C17.9864 12.0567 18.0097 12.1044 18.0209 12.1409C18.032 12.1774 18.0412 12.2311 18.0412 12.2595C18.0412 12.2889 18.032 12.3417 18.0199 12.3761C18.0087 12.4116 17.9884 12.4532 17.9763 12.4704C17.9718 12.4759 17.966 12.4828 17.9584 12.4912C17.9161 12.5381 17.8891 12.5974 17.8891 12.6605V13.5923C17.8891 13.7203 17.9928 13.824 18.1208 13.824H18.4786C18.6066 13.824 18.7104 13.7203 18.7104 13.5923V13.3122C18.7104 13.2797 18.6972 13.2485 18.6739 13.2258V13.2258C18.6536 13.2065 18.6272 13.1741 18.614 13.1548C18.6019 13.1356 18.5836 13.092 18.5735 13.0585C18.5613 13.0169 18.5573 12.9754 18.5603 12.9267C18.5633 12.875 18.5725 12.8385 18.5958 12.7898C18.6161 12.7482 18.6455 12.7077 18.6759 12.6793C18.7033 12.655 18.7509 12.6235 18.7813 12.6083C18.829 12.586 18.8513 12.582 18.9284 12.583C19.0014 12.583 19.0318 12.588 19.0804 12.6073C19.119 12.6225 19.1605 12.6509 19.194 12.6834C19.2234 12.7117 19.2579 12.7604 19.2751 12.7949C19.3005 12.8486 19.3035 12.8669 19.3035 12.952C19.3035 13.0352 19.2995 13.0565 19.2761 13.1092C19.266 13.1301 19.2496 13.1565 19.2214 13.1906C19.1823 13.238 19.1565 13.2958 19.1565 13.3573V14.0384C19.1565 14.1664 19.0527 14.2701 18.9247 14.2701H17.6747C17.5467 14.2701 17.443 14.1664 17.443 14.0384V12.6284C17.443 12.5889 17.4273 12.5511 17.3994 12.5232V12.5232C17.375 12.4998 17.3426 12.4532 17.3264 12.4197C17.299 12.365 17.2959 12.3498 17.2959 12.2575C17.2959 12.1693 17.299 12.149 17.3223 12.1003C17.3375 12.0699 17.3649 12.0263 17.3841 12.004C17.4034 11.9817 17.446 11.9493 17.4795 11.931C17.5119 11.9128 17.5596 11.8935 17.5849 11.8884C17.6103 11.8834 17.6427 11.8793 17.6589 11.8783Z" fill="#F2D469"/>
<path d="M16.6724 14.7974L16.6714 11.8196C16.6714 11.7561 16.6996 11.6972 16.7391 11.6474C16.7458 11.639 16.7515 11.6311 16.7565 11.6238C16.7738 11.5984 16.7961 11.5518 16.8062 11.5194C16.8163 11.4879 16.8245 11.4403 16.8245 11.4129C16.8245 11.3865 16.8153 11.3358 16.8042 11.2993C16.793 11.2628 16.7677 11.2121 16.7484 11.1848C16.7292 11.1584 16.6845 11.1189 16.6501 11.0966C16.6125 11.0722 16.5639 11.0509 16.5304 11.0448C16.5 11.0388 16.4453 11.0357 16.4087 11.0388C16.3641 11.0418 16.3236 11.053 16.282 11.0742C16.2435 11.0935 16.2019 11.1249 16.1674 11.1635C16.134 11.2 16.1056 11.2446 16.0924 11.2791C16.0782 11.3166 16.0721 11.3592 16.0721 11.4109C16.0721 11.4666 16.0782 11.5031 16.0954 11.5478C16.1107 11.5873 16.137 11.6279 16.1725 11.6644V11.6644C16.2064 11.7002 16.2252 11.7476 16.2253 11.7969L16.2262 15.0118C16.2262 15.1398 16.33 15.2435 16.4579 15.2435H19.2782H19.194H15.9105M16.6724 14.7974H19.4925C19.6205 14.7974 19.7243 14.9011 19.7243 15.0291V15.1566C19.7243 15.2846 19.6205 15.3884 19.4925 15.3884H16.6724M16.6724 14.7974H13.225M16.6724 14.7974V15.3884M13.225 14.7974H10.4049C10.2769 14.7974 10.1731 14.9011 10.1731 15.0291V15.1566C10.1731 15.2846 10.2769 15.3884 10.4049 15.3884H13.1987M13.225 14.7974L13.226 11.7574C13.226 11.7336 13.2161 11.7109 13.1987 11.6948V11.6948C13.1845 11.6806 13.1581 11.6491 13.1409 11.6238C13.1236 11.5984 13.1013 11.5518 13.0912 11.5194C13.081 11.4879 13.0729 11.4403 13.0729 11.4129C13.0729 11.3865 13.0821 11.3358 13.0932 11.2993C13.1044 11.2628 13.1297 11.2121 13.149 11.1848C13.1682 11.1584 13.2128 11.1189 13.2483 11.0966C13.2848 11.0722 13.3335 11.0509 13.367 11.0448C13.3974 11.0388 13.4521 11.0357 13.4886 11.0388C13.5333 11.0418 13.5738 11.053 13.6154 11.0742C13.6539 11.0935 13.6955 11.1249 13.73 11.1635C13.7634 11.2 13.7918 11.2446 13.805 11.2791C13.8192 11.3166 13.8253 11.3592 13.8253 11.4109C13.8253 11.4666 13.8192 11.5031 13.8019 11.5478C13.7912 11.5758 13.7748 11.6043 13.7347 11.6514C13.6961 11.6968 13.6721 11.7534 13.6721 11.813L13.6712 15.0118C13.6712 15.1398 13.5674 15.2435 13.4395 15.2435H10.6192H14.4296M13.225 14.7974L13.1987 15.3884M14.4296 15.2435V15.2435C14.5561 15.2435 14.6593 15.142 14.6613 15.0154L14.7254 10.9788C14.7262 10.9294 14.7003 10.8833 14.6577 10.8583V10.8583C14.6202 10.836 14.5614 10.7903 14.5279 10.7569C14.4945 10.7224 14.4509 10.6636 14.4296 10.6251C14.4093 10.5855 14.385 10.5267 14.3768 10.4933C14.3677 10.4598 14.3606 10.3919 14.3606 10.3412C14.3606 10.2905 14.3677 10.2246 14.3758 10.1942C14.3839 10.1637 14.4052 10.109 14.4225 10.0725C14.4448 10.0279 14.4803 9.98123 14.532 9.92952C14.5796 9.88187 14.6323 9.8403 14.6699 9.82103C14.7033 9.80481 14.756 9.78352 14.7865 9.77541C14.8169 9.76628 14.8564 9.75716 14.8726 9.75411C14.8889 9.75209 14.9375 9.75209 14.9791 9.75411C15.0207 9.75614 15.0805 9.76527 15.1109 9.77439C15.1413 9.78352 15.1941 9.80481 15.2275 9.82103C15.265 9.8403 15.3178 9.88086 15.3654 9.92952C15.4171 9.98123 15.4526 10.0279 15.4749 10.0725C15.4922 10.109 15.5135 10.1637 15.5216 10.1942C15.5297 10.2246 15.5368 10.2905 15.5368 10.3412C15.5368 10.3919 15.5297 10.4598 15.5205 10.4933C15.5124 10.5267 15.4881 10.5855 15.4678 10.6251C15.4465 10.6636 15.4029 10.7224 15.3695 10.7569C15.3502 10.7761 15.3226 10.7994 15.2823 10.8277C15.2152 10.8748 15.1707 10.9491 15.1707 11.0311V15.0118C15.1707 15.1398 15.2745 15.2435 15.4025 15.2435H15.9105M14.4296 15.2435H15.9105M16.6724 15.3884H14.7865H13.1987M16.6724 15.3884H13.1987M12.2618 11.8823C12.3084 11.8864 12.349 11.8976 12.3987 11.9219C12.4433 11.9432 12.4849 11.9726 12.5092 12C12.5305 12.0243 12.5599 12.0699 12.5751 12.1003C12.5984 12.149 12.6015 12.1693 12.6015 12.2575C12.6015 12.3498 12.5984 12.365 12.571 12.4197C12.5613 12.4398 12.5458 12.4645 12.5203 12.4956C12.4809 12.5435 12.4544 12.6017 12.4544 12.6638V14.0384C12.4544 14.1664 12.3507 14.2701 12.2227 14.2701H10.9726C10.8447 14.2701 10.7409 14.1664 10.7409 14.0384V13.3258C10.7409 13.2845 10.7245 13.2449 10.6953 13.2157V13.2157C10.6699 13.1903 10.6375 13.1427 10.6213 13.1092C10.5979 13.0565 10.5939 13.0352 10.5939 12.952C10.5939 12.8669 10.5969 12.8486 10.6223 12.7949C10.6395 12.7604 10.674 12.7117 10.7034 12.6834C10.7368 12.6509 10.7784 12.6225 10.8169 12.6073C10.8656 12.588 10.896 12.583 10.969 12.583C11.0461 12.582 11.0684 12.586 11.116 12.6083C11.1465 12.6235 11.1941 12.655 11.2215 12.6793C11.2519 12.7077 11.2813 12.7482 11.3016 12.7898C11.3249 12.8385 11.334 12.875 11.3371 12.9267C11.3401 12.9754 11.3361 13.0169 11.3239 13.0585C11.3138 13.092 11.2955 13.1356 11.2833 13.1548C11.2773 13.1636 11.2685 13.1752 11.2553 13.1904C11.2141 13.2379 11.187 13.2968 11.187 13.3598V13.5923C11.187 13.7203 11.2908 13.824 11.4188 13.824H11.7765C11.9045 13.824 12.0083 13.7203 12.0083 13.5923V12.6062C12.0083 12.5778 11.9966 12.5507 11.9759 12.5313V12.5313C11.9586 12.514 11.9343 12.4866 11.9211 12.4704C11.9089 12.4532 11.8887 12.4116 11.8775 12.3761C11.8653 12.3417 11.8562 12.2889 11.8562 12.2595C11.8562 12.2311 11.8653 12.1774 11.8765 12.1409C11.8876 12.1044 11.911 12.0567 11.9292 12.0334C11.9475 12.0111 11.9769 11.9807 11.9931 11.9665C12.0093 11.9523 12.0397 11.933 12.059 11.9229C12.0783 11.9128 12.1178 11.8986 12.1452 11.8905C12.1746 11.8834 12.2233 11.8803 12.2618 11.8823ZM17.6589 11.8783C17.6741 11.8773 17.7106 11.8823 17.74 11.8884C17.7684 11.8945 17.811 11.9097 17.8333 11.9209C17.8556 11.932 17.8871 11.9523 17.9043 11.9665C17.9215 11.9807 17.9499 12.0111 17.9682 12.0334C17.9864 12.0567 18.0097 12.1044 18.0209 12.1409C18.032 12.1774 18.0412 12.2311 18.0412 12.2595C18.0412 12.2889 18.032 12.3417 18.0199 12.3761C18.0087 12.4116 17.9884 12.4532 17.9763 12.4704C17.9718 12.4759 17.966 12.4828 17.9584 12.4912C17.9161 12.5381 17.8891 12.5974 17.8891 12.6605V13.5923C17.8891 13.7203 17.9928 13.824 18.1208 13.824H18.4786C18.6066 13.824 18.7104 13.7203 18.7104 13.5923V13.3122C18.7104 13.2797 18.6972 13.2485 18.6739 13.2258V13.2258C18.6536 13.2065 18.6272 13.1741 18.614 13.1548C18.6019 13.1356 18.5836 13.092 18.5735 13.0585C18.5613 13.0169 18.5573 12.9754 18.5603 12.9267C18.5633 12.875 18.5725 12.8385 18.5958 12.7898C18.6161 12.7482 18.6455 12.7077 18.6759 12.6793C18.7033 12.655 18.7509 12.6235 18.7813 12.6083C18.829 12.586 18.8513 12.582 18.9284 12.583C19.0014 12.583 19.0318 12.588 19.0804 12.6073C19.119 12.6225 19.1605 12.6509 19.194 12.6834C19.2234 12.7117 19.2579 12.7604 19.2751 12.7949C19.3005 12.8486 19.3035 12.8669 19.3035 12.952C19.3035 13.0352 19.2995 13.0565 19.2761 13.1092C19.266 13.1301 19.2496 13.1565 19.2214 13.1906C19.1823 13.238 19.1565 13.2958 19.1565 13.3573V14.0384C19.1565 14.1664 19.0527 14.2701 18.9247 14.2701H17.6747C17.5467 14.2701 17.443 14.1664 17.443 14.0384V12.6284C17.443 12.5889 17.4273 12.5511 17.3994 12.5232V12.5232C17.375 12.4998 17.3426 12.4532 17.3264 12.4197C17.299 12.365 17.2959 12.3498 17.2959 12.2575C17.2959 12.1693 17.299 12.149 17.3223 12.1003C17.3375 12.0699 17.3649 12.0263 17.3841 12.004C17.4034 11.9817 17.446 11.9493 17.4795 11.931C17.5119 11.9128 17.5596 11.8935 17.5849 11.8884C17.6103 11.8834 17.6427 11.8793 17.6589 11.8783Z" stroke="#F2D469" stroke-width="0.0155107" stroke-linejoin="round"/>
<g filter="url(#filter5_f_203_218)">
<path d="M15.0437 10.0023C15.0164 9.99414 14.9707 9.98704 14.9424 9.98806C14.915 9.98806 14.8714 9.99516 14.846 10.0023C14.8207 10.0104 14.7781 10.0347 14.7497 10.056C14.7132 10.0834 14.6889 10.1138 14.6635 10.1635C14.6331 10.2233 14.628 10.2436 14.628 10.3003C14.628 10.3368 14.6361 10.3896 14.6453 10.418C14.6554 10.4453 14.6828 10.491 14.7061 10.5183C14.7325 10.5467 14.774 10.5792 14.8105 10.5974C14.8663 10.6248 14.8785 10.6268 14.9576 10.6238C15.0296 10.6207 15.0529 10.6147 15.0985 10.5893C15.1289 10.5731 15.1705 10.5396 15.1928 10.5143C15.2141 10.4889 15.2394 10.4453 15.2496 10.418C15.2587 10.3896 15.2668 10.3368 15.2668 10.3003C15.2668 10.2436 15.2617 10.2233 15.2313 10.1635C15.206 10.1138 15.1816 10.0834 15.1451 10.056C15.1178 10.0347 15.0721 10.0104 15.0437 10.0023Z" fill="#FFFDED"/>
<path d="M13.5208 11.22C13.5026 11.2109 13.4701 11.2038 13.4488 11.2038H13.4499C13.4286 11.2038 13.3961 11.2119 13.3768 11.222C13.3576 11.2311 13.3282 11.2565 13.3109 11.2778C13.2836 11.3112 13.2795 11.3254 13.2795 11.3751C13.2795 11.4207 13.2856 11.442 13.3049 11.4704C13.3191 11.4927 13.3495 11.5171 13.3758 11.5302C13.4113 11.5465 13.4326 11.5505 13.4722 11.5455C13.5005 11.5424 13.534 11.5313 13.5482 11.5201C13.5624 11.5089 13.5817 11.4897 13.5918 11.4765C13.6019 11.4633 13.6141 11.4339 13.6182 11.4116C13.6253 11.3832 13.6232 11.3569 13.6141 11.3254C13.606 11.3001 13.5898 11.2697 13.5766 11.2585C13.5634 11.2463 13.5381 11.2291 13.5208 11.22Z" fill="#FFFDED"/>
<path d="M16.517 11.222C16.4977 11.2119 16.4643 11.2038 16.442 11.2038C16.4196 11.2048 16.3852 11.2139 16.3649 11.225C16.3446 11.2362 16.3152 11.2616 16.301 11.2828C16.2807 11.3112 16.2736 11.3335 16.2726 11.3711C16.2726 11.3984 16.2787 11.4349 16.2878 11.4522C16.2959 11.4684 16.3142 11.4927 16.3274 11.5049C16.3395 11.5171 16.3629 11.5313 16.3791 11.5373C16.3943 11.5434 16.4237 11.5485 16.445 11.5485C16.4653 11.5485 16.5008 11.5394 16.5231 11.5282C16.5454 11.5171 16.5748 11.4917 16.589 11.4704C16.6082 11.442 16.6143 11.4207 16.6143 11.3751C16.6143 11.3254 16.6103 11.3112 16.5829 11.2778C16.5657 11.2565 16.5362 11.2311 16.517 11.222Z" fill="#FFFDED"/>
<path d="M12.2727 12.0555L12.2466 12.0494C12.2317 12.0461 12.2165 12.0469 12.2018 12.0512C12.1932 12.0537 12.1832 12.0569 12.1733 12.0605C12.151 12.0686 12.1226 12.0859 12.1094 12.0991C12.0973 12.1112 12.08 12.1366 12.0719 12.1538C12.0638 12.1721 12.0567 12.2035 12.0567 12.2228C12.0567 12.242 12.0658 12.2765 12.077 12.2988C12.0881 12.3211 12.1094 12.3485 12.1257 12.3606C12.1409 12.3718 12.1703 12.385 12.1916 12.3911C12.2159 12.3971 12.2433 12.3961 12.2696 12.3901C12.2919 12.385 12.3244 12.3677 12.3416 12.3515C12.3599 12.3363 12.3802 12.312 12.3873 12.2958C12.3954 12.2805 12.4015 12.2481 12.4015 12.2228C12.4015 12.1974 12.3954 12.165 12.3873 12.1487C12.3802 12.1335 12.3599 12.1092 12.3416 12.093C12.3244 12.0778 12.293 12.0615 12.2727 12.0555Z" fill="#FFFDED"/>
<path d="M17.7479 12.0717C17.7317 12.0636 17.7033 12.0544 17.684 12.0514C17.6627 12.0484 17.6323 12.0514 17.608 12.0605C17.5857 12.0686 17.5563 12.0859 17.5441 12.0991C17.5309 12.1112 17.5137 12.1335 17.5056 12.1487C17.4975 12.165 17.4914 12.1974 17.4914 12.2228C17.4914 12.2481 17.4975 12.2805 17.5056 12.2958C17.5127 12.312 17.5329 12.3363 17.5512 12.3515C17.5684 12.3677 17.5999 12.384 17.6212 12.3901C17.6445 12.3961 17.6739 12.3961 17.6992 12.3901C17.7215 12.385 17.7509 12.3718 17.7651 12.3617C17.7793 12.3515 17.8006 12.3252 17.8138 12.3029C17.831 12.2724 17.8361 12.2511 17.8341 12.2116C17.832 12.1751 17.8229 12.1498 17.8037 12.1234C17.7874 12.1031 17.7631 12.0798 17.7479 12.0717Z" fill="#FFFDED"/>
<path d="M11.0195 12.7561C11.0043 12.75 10.9769 12.7449 10.9586 12.7449C10.9414 12.7459 10.91 12.751 10.8907 12.7581C10.8714 12.7652 10.8461 12.7845 10.8329 12.8007C10.8207 12.8179 10.8055 12.8433 10.8005 12.8585C10.7944 12.8747 10.7893 12.9031 10.7893 12.9224C10.7893 12.9416 10.7974 12.9751 10.8065 12.9954C10.8167 13.0156 10.839 13.043 10.8552 13.0552C10.8806 13.0755 10.8978 13.0785 10.9617 13.0785C11.0256 13.0785 11.0428 13.0755 11.0681 13.0552C11.0844 13.043 11.1067 13.0156 11.1158 12.9954C11.1259 12.9751 11.134 12.9416 11.134 12.9224C11.134 12.9031 11.128 12.8717 11.1198 12.8534C11.1127 12.8362 11.0935 12.8088 11.0773 12.7936C11.061 12.7784 11.0357 12.7611 11.0195 12.7561Z" fill="#FFFDED"/>
<path d="M18.9889 12.7561C18.9737 12.75 18.9464 12.7449 18.9281 12.7449C18.9109 12.7459 18.8794 12.751 18.8602 12.7581C18.8409 12.7652 18.8156 12.7845 18.8024 12.8007C18.7902 12.8179 18.775 12.8433 18.7699 12.8585C18.7638 12.8747 18.7588 12.9031 18.7588 12.9224C18.7588 12.9416 18.7669 12.9751 18.776 12.9954C18.7862 13.0156 18.8074 13.043 18.8247 13.0552C18.85 13.0755 18.8673 13.0785 18.9311 13.0785C18.995 13.0785 19.0123 13.0755 19.0376 13.0552C19.0548 13.043 19.0761 13.0156 19.0853 12.9954C19.0954 12.9751 19.1035 12.9416 19.1035 12.9224C19.1035 12.9031 19.0974 12.8717 19.0893 12.8534C19.0822 12.8362 19.063 12.8088 19.0467 12.7936C19.0305 12.7784 19.0052 12.7611 18.9889 12.7561Z" fill="#FFFDED"/>
<path d="M15.0437 10.0023C15.0164 9.99414 14.9707 9.98704 14.9424 9.98806C14.915 9.98806 14.8714 9.99516 14.846 10.0023C14.8207 10.0104 14.7781 10.0347 14.7497 10.056C14.7132 10.0834 14.6889 10.1138 14.6635 10.1635C14.6331 10.2233 14.628 10.2436 14.628 10.3003C14.628 10.3368 14.6361 10.3896 14.6453 10.418C14.6554 10.4453 14.6828 10.491 14.7061 10.5183C14.7325 10.5467 14.774 10.5792 14.8105 10.5974C14.8663 10.6248 14.8785 10.6268 14.9576 10.6238C15.0296 10.6207 15.0529 10.6147 15.0985 10.5893C15.1289 10.5731 15.1705 10.5396 15.1928 10.5143C15.2141 10.4889 15.2394 10.4453 15.2496 10.418C15.2587 10.3896 15.2668 10.3368 15.2668 10.3003C15.2668 10.2436 15.2617 10.2233 15.2313 10.1635C15.206 10.1138 15.1816 10.0834 15.1451 10.056C15.1178 10.0347 15.0721 10.0104 15.0437 10.0023Z" stroke="#FFF278" stroke-width="0.0155107"/>
<path d="M13.5208 11.22C13.5026 11.2109 13.4701 11.2038 13.4488 11.2038H13.4499C13.4286 11.2038 13.3961 11.2119 13.3768 11.222C13.3576 11.2311 13.3282 11.2565 13.3109 11.2778C13.2836 11.3112 13.2795 11.3254 13.2795 11.3751C13.2795 11.4207 13.2856 11.442 13.3049 11.4704C13.3191 11.4927 13.3495 11.5171 13.3758 11.5302C13.4113 11.5465 13.4326 11.5505 13.4722 11.5455C13.5005 11.5424 13.534 11.5313 13.5482 11.5201C13.5624 11.5089 13.5817 11.4897 13.5918 11.4765C13.6019 11.4633 13.6141 11.4339 13.6182 11.4116C13.6253 11.3832 13.6232 11.3569 13.6141 11.3254C13.606 11.3001 13.5898 11.2697 13.5766 11.2585C13.5634 11.2463 13.5381 11.2291 13.5208 11.22Z" stroke="#FFF278" stroke-width="0.0155107"/>
<path d="M16.517 11.222C16.4977 11.2119 16.4643 11.2038 16.442 11.2038C16.4196 11.2048 16.3852 11.2139 16.3649 11.225C16.3446 11.2362 16.3152 11.2616 16.301 11.2828C16.2807 11.3112 16.2736 11.3335 16.2726 11.3711C16.2726 11.3984 16.2787 11.4349 16.2878 11.4522C16.2959 11.4684 16.3142 11.4927 16.3274 11.5049C16.3395 11.5171 16.3629 11.5313 16.3791 11.5373C16.3943 11.5434 16.4237 11.5485 16.445 11.5485C16.4653 11.5485 16.5008 11.5394 16.5231 11.5282C16.5454 11.5171 16.5748 11.4917 16.589 11.4704C16.6082 11.442 16.6143 11.4207 16.6143 11.3751C16.6143 11.3254 16.6103 11.3112 16.5829 11.2778C16.5657 11.2565 16.5362 11.2311 16.517 11.222Z" stroke="#FFF278" stroke-width="0.0155107"/>
<path d="M12.2727 12.0555L12.2466 12.0494C12.2317 12.0461 12.2165 12.0469 12.2018 12.0512C12.1932 12.0537 12.1832 12.0569 12.1733 12.0605C12.151 12.0686 12.1226 12.0859 12.1094 12.0991C12.0973 12.1112 12.08 12.1366 12.0719 12.1538C12.0638 12.1721 12.0567 12.2035 12.0567 12.2228C12.0567 12.242 12.0658 12.2765 12.077 12.2988C12.0881 12.3211 12.1094 12.3485 12.1257 12.3606C12.1409 12.3718 12.1703 12.385 12.1916 12.3911C12.2159 12.3971 12.2433 12.3961 12.2696 12.3901C12.2919 12.385 12.3244 12.3677 12.3416 12.3515C12.3599 12.3363 12.3802 12.312 12.3873 12.2958C12.3954 12.2805 12.4015 12.2481 12.4015 12.2228C12.4015 12.1974 12.3954 12.165 12.3873 12.1487C12.3802 12.1335 12.3599 12.1092 12.3416 12.093C12.3244 12.0778 12.293 12.0615 12.2727 12.0555Z" stroke="#FFF278" stroke-width="0.0155107"/>
<path d="M17.7479 12.0717C17.7317 12.0636 17.7033 12.0544 17.684 12.0514C17.6627 12.0484 17.6323 12.0514 17.608 12.0605C17.5857 12.0686 17.5563 12.0859 17.5441 12.0991C17.5309 12.1112 17.5137 12.1335 17.5056 12.1487C17.4975 12.165 17.4914 12.1974 17.4914 12.2228C17.4914 12.2481 17.4975 12.2805 17.5056 12.2958C17.5127 12.312 17.5329 12.3363 17.5512 12.3515C17.5684 12.3677 17.5999 12.384 17.6212 12.3901C17.6445 12.3961 17.6739 12.3961 17.6992 12.3901C17.7215 12.385 17.7509 12.3718 17.7651 12.3617C17.7793 12.3515 17.8006 12.3252 17.8138 12.3029C17.831 12.2724 17.8361 12.2511 17.8341 12.2116C17.832 12.1751 17.8229 12.1498 17.8037 12.1234C17.7874 12.1031 17.7631 12.0798 17.7479 12.0717Z" stroke="#FFF278" stroke-width="0.0155107"/>
<path d="M11.0195 12.7561C11.0043 12.75 10.9769 12.7449 10.9586 12.7449C10.9414 12.7459 10.91 12.751 10.8907 12.7581C10.8714 12.7652 10.8461 12.7845 10.8329 12.8007C10.8207 12.8179 10.8055 12.8433 10.8005 12.8585C10.7944 12.8747 10.7893 12.9031 10.7893 12.9224C10.7893 12.9416 10.7974 12.9751 10.8065 12.9954C10.8167 13.0156 10.839 13.043 10.8552 13.0552C10.8806 13.0755 10.8978 13.0785 10.9617 13.0785C11.0256 13.0785 11.0428 13.0755 11.0681 13.0552C11.0844 13.043 11.1067 13.0156 11.1158 12.9954C11.1259 12.9751 11.134 12.9416 11.134 12.9224C11.134 12.9031 11.128 12.8717 11.1198 12.8534C11.1127 12.8362 11.0935 12.8088 11.0773 12.7936C11.061 12.7784 11.0357 12.7611 11.0195 12.7561Z" stroke="#FFF278" stroke-width="0.0155107"/>
<path d="M18.9889 12.7561C18.9737 12.75 18.9464 12.7449 18.9281 12.7449C18.9109 12.7459 18.8794 12.751 18.8602 12.7581C18.8409 12.7652 18.8156 12.7845 18.8024 12.8007C18.7902 12.8179 18.775 12.8433 18.7699 12.8585C18.7638 12.8747 18.7588 12.9031 18.7588 12.9224C18.7588 12.9416 18.7669 12.9751 18.776 12.9954C18.7862 13.0156 18.8074 13.043 18.8247 13.0552C18.85 13.0755 18.8673 13.0785 18.9311 13.0785C18.995 13.0785 19.0123 13.0755 19.0376 13.0552C19.0548 13.043 19.0761 13.0156 19.0853 12.9954C19.0954 12.9751 19.1035 12.9416 19.1035 12.9224C19.1035 12.9031 19.0974 12.8717 19.0893 12.8534C19.0822 12.8362 19.063 12.8088 19.0467 12.7936C19.0305 12.7784 19.0052 12.7611 18.9889 12.7561Z" stroke="#FFF278" stroke-width="0.0155107"/>
</g>
<path d="M16.4421 14.7974H13.4293C13.3013 14.7974 13.1975 14.9012 13.1975 15.0292V15.145C13.1975 15.273 13.3013 15.3768 13.4293 15.3768H16.4421C16.5701 15.3768 16.6738 15.273 16.6738 15.145V15.0292C16.6738 14.9012 16.5701 14.7974 16.4421 14.7974Z" fill="#F2D469"/>
</g>
</g>
<g filter="url(#filter6_dii_203_218)">
<path d="M11.6621 16.4387L11.8013 16.2336L7.79492 13.3479L11.8013 10.4695L11.6621 10.2644L7.50928 13.2527V13.4504L11.6621 16.4387Z" fill="#FFFDED"/>
<path d="M11.6621 16.4387L11.5538 16.5892L11.8155 16.5428L11.6621 16.4387ZM11.8013 16.2336L11.9547 16.3377L11.9096 16.0832L11.8013 16.2336ZM7.79492 13.3479L7.68674 13.1973L7.68656 13.4983L7.79492 13.3479ZM11.8013 10.4695L11.9094 10.62L11.9547 10.3653L11.8013 10.4695ZM11.6621 10.2644L11.8155 10.1603L11.5538 10.1139L11.6621 10.2644ZM7.50928 13.2527L7.40099 13.1022L7.32387 13.2527H7.50928ZM7.50928 13.4504H7.32387L7.40099 13.6009L7.50928 13.4504ZM11.8155 16.5428L11.9547 16.3377L11.6479 16.1295L11.5087 16.3346L11.8155 16.5428ZM11.9096 16.0832L7.90328 13.1974L7.68656 13.4983L11.6929 16.3841L11.9096 16.0832ZM7.9031 13.4984L11.9094 10.62L11.6931 10.3189L7.68674 13.1973L7.9031 13.4984ZM11.9547 10.3653L11.8155 10.1603L11.5087 10.3685L11.6479 10.5736L11.9547 10.3653ZM11.5538 10.1139L7.40099 13.1022L7.61757 13.4031L11.7704 10.4149L11.5538 10.1139ZM7.32387 13.2527V13.4504H7.69468V13.2527H7.32387ZM7.40099 13.6009L11.5538 16.5892L11.7704 16.2882L7.61757 13.2999L7.40099 13.6009Z" fill="#F2D469"/>
</g>
</g>
<defs>
<filter id="filter0_d_203_218" x="-0.236551" y="2" width="31.343" height="27.7356" filterUnits="userSpaceOnUse" color-interpolation-filters="sRGB">
<feFlood flood-opacity="0" result="BackgroundImageFix"/>
<feColorMatrix in="SourceAlpha" type="matrix" values="0 0 0 0 0 0 0 0 0 0 0 0 0 0 0 0 0 0 127 0" result="hardAlpha"/>
<feOffset dy="0.236551"/>
<feGaussianBlur stdDeviation="0.118275"/>
<feComposite in2="hardAlpha" operator="out"/>
<feColorMatrix type="matrix" values="0 0 0 0 0 0 0 0 0 0 0 0 0 0 0 0 0 0 0.25 0"/>
<feBlend mode="normal" in2="BackgroundImageFix" result="effect1_dropShadow_203_218"/>
<feBlend mode="normal" in="SourceGraphic" in2="effect1_dropShadow_203_218" result="shape"/>
</filter>
<filter id="filter1_ddii_203_218" x="1.69289" y="7.05257" width="27.4843" height="17.5713" filterUnits="userSpaceOnUse" color-interpolation-filters="sRGB">
<feFlood flood-opacity="0" result="BackgroundImageFix"/>
<feColorMatrix in="SourceAlpha" type="matrix" values="0 0 0 0 0 0 0 0 0 0 0 0 0 0 0 0 0 0 127 0" result="hardAlpha"/>
<feOffset dx="0.118275" dy="-0.0591376"/>
<feComposite in2="hardAlpha" operator="out"/>
<feColorMatrix type="matrix" values="0 0 0 0 1 0 0 0 0 1 0 0 0 0 1 0 0 0 1 0"/>
<feBlend mode="normal" in2="BackgroundImageFix" result="effect1_dropShadow_203_218"/>
<feColorMatrix in="SourceAlpha" type="matrix" values="0 0 0 0 0 0 0 0 0 0 0 0 0 0 0 0 0 0 127 0" result="hardAlpha"/>
<feOffset dy="0.236551"/>
<feGaussianBlur stdDeviation="0.118275"/>
<feComposite in2="hardAlpha" operator="out"/>
<feColorMatrix type="matrix" values="0 0 0 0 0 0 0 0 0 0 0 0 0 0 0 0 0 0 0.25 0"/>
<feBlend mode="normal" in2="effect1_dropShadow_203_218" result="effect2_dropShadow_203_218"/>
<feBlend mode="normal" in="SourceGraphic" in2="effect2_dropShadow_203_218" result="shape"/>
<feColorMatrix in="SourceAlpha" type="matrix" values="0 0 0 0 0 0 0 0 0 0 0 0 0 0 0 0 0 0 127 0" result="hardAlpha"/>
<feOffset dx="0.473101" dy="0.473101"/>
<feGaussianBlur stdDeviation="0.118275"/>
<feComposite in2="hardAlpha" operator="arithmetic" k2="-1" k3="1"/>
<feColorMatrix type="matrix" values="0 0 0 0 0 0 0 0 0 0 0 0 0 0 0 0 0 0 0.25 0"/>
<feBlend mode="normal" in2="shape" result="effect3_innerShadow_203_218"/>
<feColorMatrix in="SourceAlpha" type="matrix" values="0 0 0 0 0 0 0 0 0 0 0 0 0 0 0 0 0 0 127 0" result="hardAlpha"/>
<feOffset dx="-0.413963" dy="0.177413"/>
<feGaussianBlur stdDeviation="0.118275"/>
<feComposite in2="hardAlpha" operator="arithmetic" k2="-1" k3="1"/>
<feColorMatrix type="matrix" values="0 0 0 0 0 0 0 0 0 0 0 0 0 0 0 0 0 0 0.25 0"/>
<feBlend mode="normal" in2="effect3_innerShadow_203_218" result="effect4_innerShadow_203_218"/>
</filter>
<filter id="filter2_dii_203_218" x="18.0206" y="10.3339" width="4.58768" height="6.49877" filterUnits="userSpaceOnUse" color-interpolation-filters="sRGB">
<feFlood flood-opacity="0" result="BackgroundImageFix"/>
<feColorMatrix in="SourceAlpha" type="matrix" values="0 0 0 0 0 0 0 0 0 0 0 0 0 0 0 0 0 0 127 0" result="hardAlpha"/>
<feOffset dy="0.231755"/>
<feGaussianBlur stdDeviation="0.046351"/>
<feComposite in2="hardAlpha" operator="out"/>
<feColorMatrix type="matrix" values="0 0 0 0 0 0 0 0 0 0 0 0 0 0 0 0 0 0 0.25 0"/>
<feBlend mode="normal" in2="BackgroundImageFix" result="effect1_dropShadow_203_218"/>
<feBlend mode="normal" in="SourceGraphic" in2="effect1_dropShadow_203_218" result="shape"/>
<feColorMatrix in="SourceAlpha" type="matrix" values="0 0 0 0 0 0 0 0 0 0 0 0 0 0 0 0 0 0 127 0" result="hardAlpha"/>
<feOffset dx="0.118275" dy="0.236551"/>
<feGaussianBlur stdDeviation="0.118275"/>
<feComposite in2="hardAlpha" operator="arithmetic" k2="-1" k3="1"/>
<feColorMatrix type="matrix" values="0 0 0 0 0 0 0 0 0 0 0 0 0 0 0 0 0 0 0.25 0"/>
<feBlend mode="normal" in2="shape" result="effect2_innerShadow_203_218"/>
<feColorMatrix in="SourceAlpha" type="matrix" values="0 0 0 0 0 0 0 0 0 0 0 0 0 0 0 0 0 0 127 0" result="hardAlpha"/>
<feOffset dx="-0.177413" dy="0.236551"/>
<feGaussianBlur stdDeviation="0.118275"/>
<feComposite in2="hardAlpha" operator="arithmetic" k2="-1" k3="1"/>
<feColorMatrix type="matrix" values="0 0 0 0 0 0 0 0 0 0 0 0 0 0 0 0 0 0 0.25 0"/>
<feBlend mode="normal" in2="effect2_innerShadow_203_218" result="effect3_innerShadow_203_218"/>
</filter>
<filter id="filter3_d_203_218" x="10.0726" y="9.74484" width="9.75205" height="5.83668" filterUnits="userSpaceOnUse" color-interpolation-filters="sRGB">
<feFlood flood-opacity="0" result="BackgroundImageFix"/>
<feColorMatrix in="SourceAlpha" type="matrix" values="0 0 0 0 0 0 0 0 0 0 0 0 0 0 0 0 0 0 127 0" result="hardAlpha"/>
<feOffset dy="0.0927019"/>
<feGaussianBlur stdDeviation="0.046351"/>
<feComposite in2="hardAlpha" operator="out"/>
<feColorMatrix type="matrix" values="0 0 0 0 0.835294 0 0 0 0 0.607843 0 0 0 0 0.184314 0 0 0 0.15 0"/>
<feBlend mode="normal" in2="BackgroundImageFix" result="effect1_dropShadow_203_218"/>
<feBlend mode="normal" in="SourceGraphic" in2="effect1_dropShadow_203_218" result="shape"/>
</filter>
<filter id="filter4_d_203_218" x="10.1189" y="9.65214" width="9.93746" height="6.02208" filterUnits="userSpaceOnUse" color-interpolation-filters="sRGB">
<feFlood flood-opacity="0" result="BackgroundImageFix"/>
<feColorMatrix in="SourceAlpha" type="matrix" values="0 0 0 0 0 0 0 0 0 0 0 0 0 0 0 0 0 0 127 0" result="hardAlpha"/>
<feOffset dx="0.139053" dy="0.0927019"/>
<feGaussianBlur stdDeviation="0.0927019"/>
<feComposite in2="hardAlpha" operator="out"/>
<feColorMatrix type="matrix" values="0 0 0 0 0.835294 0 0 0 0 0.607843 0 0 0 0 0.184314 0 0 0 0.15 0"/>
<feBlend mode="normal" in2="BackgroundImageFix" result="effect1_dropShadow_203_218"/>
<feBlend mode="normal" in="SourceGraphic" in2="effect1_dropShadow_203_218" result="shape"/>
</filter>
<filter id="filter5_f_203_218" x="10.6193" y="9.81798" width="8.65429" height="3.43051" filterUnits="userSpaceOnUse" color-interpolation-filters="sRGB">
<feFlood flood-opacity="0" result="BackgroundImageFix"/>
<feBlend mode="normal" in="SourceGraphic" in2="BackgroundImageFix" result="shape"/>
<feGaussianBlur stdDeviation="0.0811142" result="effect1_foregroundBlur_203_218"/>
</filter>
<filter id="filter6_dii_203_218" x="7.33186" y="10.2644" width="4.58768" height="6.49877" filterUnits="userSpaceOnUse" color-interpolation-filters="sRGB">
<feFlood flood-opacity="0" result="BackgroundImageFix"/>
<feColorMatrix in="SourceAlpha" type="matrix" values="0 0 0 0 0 0 0 0 0 0 0 0 0 0 0 0 0 0 127 0" result="hardAlpha"/>
<feOffset dy="0.231755"/>
<feGaussianBlur stdDeviation="0.046351"/>
<feComposite in2="hardAlpha" operator="out"/>
<feColorMatrix type="matrix" values="0 0 0 0 0 0 0 0 0 0 0 0 0 0 0 0 0 0 0.25 0"/>
<feBlend mode="normal" in2="BackgroundImageFix" result="effect1_dropShadow_203_218"/>
<feBlend mode="normal" in="SourceGraphic" in2="effect1_dropShadow_203_218" result="shape"/>
<feColorMatrix in="SourceAlpha" type="matrix" values="0 0 0 0 0 0 0 0 0 0 0 0 0 0 0 0 0 0 127 0" result="hardAlpha"/>
<feOffset dx="0.118275" dy="0.236551"/>
<feGaussianBlur stdDeviation="0.118275"/>
<feComposite in2="hardAlpha" operator="arithmetic" k2="-1" k3="1"/>
<feColorMatrix type="matrix" values="0 0 0 0 0 0 0 0 0 0 0 0 0 0 0 0 0 0 0.25 0"/>
<feBlend mode="normal" in2="shape" result="effect2_innerShadow_203_218"/>
<feColorMatrix in="SourceAlpha" type="matrix" values="0 0 0 0 0 0 0 0 0 0 0 0 0 0 0 0 0 0 127 0" result="hardAlpha"/>
<feOffset dx="-0.177413" dy="0.236551"/>
<feGaussianBlur stdDeviation="0.118275"/>
<feComposite in2="hardAlpha" operator="arithmetic" k2="-1" k3="1"/>
<feColorMatrix type="matrix" values="0 0 0 0 0 0 0 0 0 0 0 0 0 0 0 0 0 0 0.25 0"/>
<feBlend mode="normal" in2="effect2_innerShadow_203_218" result="effect3_innerShadow_203_218"/>
</filter>
</defs>
</svg>
