<svg width="30" height="30" viewBox="0 0 30 30" fill="none" xmlns="http://www.w3.org/2000/svg">
<g clip-path="url(#clip0_408_222)">
<g filter="url(#filter0_d_408_222)">
<path d="M20.185 20.3065L26.8205 15.6247L26.8234 15.3108L20.2761 10.5065L20.0522 10.8299L26.3686 15.4577L19.9671 19.9789L20.185 20.3065Z" fill="#FFF278"/>
<path d="M20.185 20.3065L20.3546 20.5469L19.9399 20.4694L20.185 20.3065ZM26.8205 15.6247L27.1148 15.6274L26.9902 15.8651L26.8205 15.6247ZM26.8234 15.3108L26.9975 15.0735L27.1177 15.3135L26.8234 15.3108ZM20.2761 10.5065L20.0341 10.339L20.4502 10.2692L20.2761 10.5065ZM20.0522 10.8299L19.8782 11.0673L19.8102 10.6624L20.0522 10.8299ZM26.3686 15.4577L26.5426 15.2203L26.5384 15.6981L26.3686 15.4577ZM19.9671 19.9789L19.7221 20.1419L19.7973 19.7385L19.9671 19.9789ZM20.0153 20.066L26.6508 15.3842L26.9902 15.8651L20.3546 20.5469L20.0153 20.066ZM26.5262 15.6219L26.5291 15.3081L27.1177 15.3135L27.1148 15.6274L26.5262 15.6219ZM26.6493 15.5481L20.102 10.7437L20.4502 10.2692L26.9975 15.0735L26.6493 15.5481ZM20.518 10.674L20.2941 10.9974L19.8102 10.6624L20.0341 10.339L20.518 10.674ZM20.2261 10.5925L26.5426 15.2203L26.1947 15.6951L19.8782 11.0673L20.2261 10.5925ZM26.5384 15.6981L20.1369 20.2193L19.7973 19.7385L26.1989 15.2173L26.5384 15.6981ZM20.2121 19.8159L20.43 20.1435L19.9399 20.4694L19.7221 20.1419L20.2121 19.8159Z" fill="#F2D469"/>
</g>
<g filter="url(#filter1_dd_408_222)">
<g filter="url(#filter2_d_408_222)">
<g filter="url(#filter3_d_408_222)">
<path fill-rule="evenodd" clip-rule="evenodd" d="M14.9619 8.75879C15.0279 8.76262 15.1227 8.77799 15.1708 8.79292C15.219 8.80786 15.3023 8.84243 15.3552 8.86867C15.4145 8.8998 15.4976 8.96495 15.5725 9.04291C15.6538 9.12574 15.7094 9.2003 15.7442 9.27144C15.771 9.32963 15.804 9.41684 15.8164 9.46524C15.8288 9.51364 15.8391 9.61835 15.8384 9.69882C15.8376 9.77929 15.8254 9.88701 15.8104 9.93998C15.797 9.99297 15.7575 10.0859 15.7248 10.1484C15.6904 10.2093 15.6203 10.302 15.5667 10.3562C15.5359 10.3865 15.4916 10.423 15.4273 10.4673C15.3201 10.5411 15.2484 10.6584 15.2472 10.7885L15.1885 17.1067C15.1866 17.3098 15.3498 17.476 15.5529 17.4779L16.3592 17.4854L21.5709 17.5339L21.7045 17.5351L17.2281 17.4935C17.025 17.4916 16.8619 17.3255 16.8637 17.1223L16.9097 12.0195C16.9104 11.9412 16.8811 11.8657 16.8279 11.8084V11.8084C16.7721 11.7499 16.7309 11.6852 16.7073 11.6222C16.6806 11.5511 16.6715 11.4931 16.6723 11.4046C16.6731 11.3225 16.6834 11.255 16.7065 11.1956C16.7279 11.1411 16.7736 11.0707 16.8273 11.0133C16.8825 10.9526 16.949 10.9034 17.0104 10.8734C17.0767 10.8402 17.1413 10.8231 17.2121 10.8189C17.2701 10.8146 17.357 10.8203 17.4051 10.8304C17.4582 10.8405 17.5351 10.875 17.5943 10.9142C17.6487 10.9501 17.7189 11.0135 17.7491 11.0557C17.7793 11.0994 17.8187 11.1802 17.8359 11.2383C17.8531 11.2964 17.8668 11.377 17.8664 11.4189C17.866 11.4623 17.8524 11.5379 17.8359 11.5876C17.8193 11.6389 17.7832 11.7126 17.7555 11.7526C17.7474 11.7642 17.7382 11.7766 17.7275 11.7898C17.6641 11.8682 17.6184 11.9613 17.6175 12.0621L17.5751 16.7886L22.0513 16.8302C22.2545 16.8321 22.4176 16.9983 22.4157 17.2014L22.4138 17.4037C22.412 17.6069 22.2457 17.7701 22.0426 17.7682L17.5663 17.7266L14.573 17.6987L12.0528 17.6753L7.61842 17.6341C7.41526 17.6322 7.2521 17.466 7.25399 17.2628L7.25587 17.0605C7.25776 16.8573 7.42398 16.6942 7.62714 16.6961L12.1034 16.7377L12.1498 11.9126C12.1502 11.8749 12.1348 11.8387 12.1073 11.8128V11.8128C12.085 11.79 12.0436 11.7397 12.0166 11.6993C11.9896 11.6588 11.9549 11.5844 11.9393 11.5328C11.9237 11.4827 11.9115 11.407 11.9119 11.3635C11.9123 11.3217 11.9275 11.2413 11.9458 11.1836C11.964 11.1258 12.005 11.0457 12.036 11.0025C12.0669 10.961 12.1383 10.8989 12.195 10.864C12.2533 10.8259 12.3308 10.7928 12.384 10.7837C12.4324 10.7745 12.5194 10.7704 12.5773 10.7758C12.648 10.7813 12.7122 10.7996 12.7779 10.834C12.8388 10.8652 12.9043 10.9157 12.9584 10.9773C13.011 11.0357 13.0554 11.107 13.0758 11.1619C13.0978 11.2216 13.1068 11.2893 13.1061 11.3714C13.1052 11.4599 13.095 11.5178 13.067 11.5883C13.0495 11.6326 13.0231 11.6777 12.9588 11.7518C12.8969 11.8234 12.858 11.9128 12.8571 12.0075L12.8084 17.0846C12.8065 17.2878 12.6403 17.4508 12.4371 17.449L7.96081 17.4073L14.0087 17.4636V17.4636C14.2095 17.4654 14.3748 17.3058 14.3799 17.105L14.5411 10.6989C14.5431 10.6205 14.5027 10.547 14.4355 10.5066V10.5066C14.3763 10.4706 14.2836 10.3974 14.231 10.3438C14.1784 10.2885 14.11 10.1946 14.0768 10.1331C14.0452 10.07 14.0075 9.97633 13.9951 9.9231C13.9811 9.86986 13.9708 9.76193 13.9716 9.68146C13.9723 9.601 13.9846 9.4965 13.9979 9.44834C14.0112 9.40018 14.0458 9.31359 14.0737 9.25591C14.1098 9.18542 14.1668 9.11192 14.2496 9.03061C14.326 8.95567 14.4103 8.89047 14.4701 8.86044C14.5234 8.83519 14.6074 8.80217 14.6558 8.78974C14.7042 8.77571 14.7671 8.76181 14.7929 8.75722C14.8187 8.75424 14.896 8.75496 14.9619 8.75879ZM10.6175 12.0967C10.6915 12.1038 10.7557 12.1221 10.8342 12.1615C10.9047 12.1959 10.9702 12.2432 11.0085 12.287C11.0419 12.3259 11.0879 12.3988 11.1116 12.4473C11.1479 12.5249 11.1524 12.5571 11.1511 12.6971C11.1497 12.8436 11.1447 12.8677 11.1004 12.9542C11.0847 12.9858 11.0597 13.0249 11.0188 13.0738C10.9555 13.1493 10.9127 13.2413 10.9118 13.3398L10.8915 15.5216C10.8896 15.7248 10.7234 15.8879 10.5202 15.8861L8.53614 15.8676C8.33299 15.8657 8.16983 15.6995 8.17172 15.4963L8.18223 14.3653C8.18284 14.2997 8.15738 14.2366 8.11144 14.1898V14.1898C8.07158 14.1492 8.02078 14.0731 7.99553 14.0197C7.95929 13.9357 7.95317 13.9019 7.9544 13.7699C7.95565 13.6347 7.96075 13.6058 8.00178 13.5209C8.02964 13.4664 8.08508 13.3897 8.13217 13.345C8.18575 13.294 8.25216 13.2496 8.31353 13.226C8.39107 13.1962 8.43942 13.1886 8.55529 13.1896C8.67762 13.1892 8.71296 13.1959 8.78827 13.232C8.83633 13.2566 8.9115 13.3072 8.95459 13.3462C9.00245 13.3918 9.04853 13.4566 9.0801 13.5228C9.1164 13.6004 9.13034 13.6585 9.13441 13.7406C9.13852 13.8179 9.13146 13.8838 9.11154 13.9496C9.09495 14.0026 9.06534 14.0715 9.04574 14.1019C9.03605 14.1158 9.02194 14.1341 9.00078 14.158C8.93461 14.2328 8.89076 14.3259 8.88983 14.4258L8.8864 14.7948C8.88451 14.998 9.04767 15.1642 9.25083 15.1661L9.81869 15.1714C10.0218 15.1733 10.1881 15.0101 10.19 14.8069L10.2045 13.2418C10.2049 13.1967 10.1867 13.1535 10.1541 13.1224V13.1224C10.127 13.0948 10.0888 13.051 10.0681 13.025C10.0491 12.9975 10.0175 12.9312 10.0003 12.8747C9.9815 12.8198 9.96779 12.736 9.96823 12.6894C9.96864 12.6443 9.98392 12.5591 10.0022 12.5014C10.0204 12.4436 10.0581 12.3683 10.0874 12.3315C10.1167 12.2964 10.1639 12.2486 10.1898 12.2263C10.2158 12.204 10.2643 12.1739 10.2951 12.158C10.3258 12.1422 10.3888 12.1203 10.4323 12.1078C10.4791 12.097 10.5564 12.0929 10.6175 12.0967ZM19.184 12.1699C19.2082 12.1685 19.266 12.1771 19.3126 12.1872C19.3576 12.1972 19.425 12.222 19.4602 12.24C19.4954 12.2581 19.545 12.2907 19.5722 12.3135C19.5993 12.3363 19.6439 12.385 19.6726 12.4207C19.7012 12.4579 19.7375 12.5339 19.7547 12.592C19.7718 12.6501 19.7855 12.7356 19.7851 12.7806C19.7847 12.8273 19.7694 12.9108 19.7496 12.9654C19.7314 13.0215 19.6986 13.0872 19.679 13.1144C19.6718 13.1231 19.6625 13.1338 19.6503 13.1472C19.5825 13.221 19.5387 13.3146 19.5378 13.4148L19.524 14.8937C19.5222 15.0969 19.6853 15.2631 19.8885 15.265L20.4563 15.2703C20.6595 15.2722 20.8257 15.109 20.8276 14.9058L20.8317 14.4613C20.8322 14.4097 20.8118 14.36 20.7751 14.3236V14.3236C20.7432 14.2928 20.7018 14.2409 20.6812 14.2101C20.6621 14.1794 20.6338 14.1099 20.6182 14.0566C20.5995 13.9905 20.5937 13.9244 20.5992 13.8472C20.6048 13.7652 20.6199 13.7074 20.6576 13.6305C20.6904 13.5648 20.7377 13.5009 20.7864 13.4562C20.8302 13.418 20.9063 13.3688 20.9548 13.3452C21.0307 13.3105 21.0662 13.3043 21.1885 13.3071C21.3044 13.3082 21.3526 13.3167 21.4295 13.348C21.4905 13.3727 21.556 13.4183 21.6087 13.4703C21.6549 13.5158 21.7089 13.5936 21.7358 13.6486C21.7752 13.7342 21.7798 13.7632 21.7785 13.8984C21.7773 14.0304 21.7705 14.0641 21.7327 14.1475C21.7164 14.1804 21.6899 14.2221 21.6447 14.2759C21.5819 14.3506 21.5401 14.4419 21.5392 14.5395L21.5291 15.6205C21.5272 15.8237 21.361 15.9868 21.1579 15.985L19.1738 15.9665C18.9706 15.9646 18.8075 15.7984 18.8094 15.5952L18.8302 13.3573C18.8307 13.2946 18.8064 13.2343 18.7625 13.1896V13.1896C18.7242 13.1522 18.6734 13.0777 18.6482 13.0243C18.6055 12.937 18.6009 12.9129 18.6023 12.7664C18.6036 12.6264 18.6087 12.5943 18.6464 12.5173C18.671 12.4693 18.7151 12.4005 18.746 12.3654C18.7769 12.3303 18.845 12.2794 18.8984 12.2509C18.9502 12.2224 19.0261 12.1925 19.0664 12.1849C19.1067 12.1772 19.1583 12.1712 19.184 12.1699Z" fill="#FFF278"/>
<path d="M17.5751 16.7886L17.6175 12.0621C17.6184 11.9613 17.6641 11.8682 17.7275 11.7898C17.7382 11.7766 17.7474 11.7642 17.7555 11.7526C17.7832 11.7126 17.8193 11.6389 17.8359 11.5876C17.8524 11.5379 17.866 11.4623 17.8664 11.4189C17.8668 11.377 17.8531 11.2964 17.8359 11.2383C17.8187 11.1802 17.7793 11.0994 17.7491 11.0557C17.7189 11.0135 17.6487 10.9501 17.5943 10.9142C17.5351 10.875 17.4582 10.8405 17.4051 10.8304C17.357 10.8203 17.2701 10.8146 17.2121 10.8189C17.1413 10.8231 17.0767 10.8402 17.0104 10.8734C16.949 10.9034 16.8825 10.9526 16.8273 11.0133C16.7736 11.0707 16.7279 11.1411 16.7065 11.1956C16.6834 11.255 16.6731 11.3225 16.6723 11.4046C16.6715 11.4931 16.6806 11.5511 16.7073 11.6222C16.7309 11.6852 16.7721 11.7499 16.8279 11.8084V11.8084C16.8811 11.8657 16.9104 11.9412 16.9097 12.0195L16.8637 17.1223C16.8619 17.3255 17.025 17.4916 17.2281 17.4935L21.7045 17.5351L21.5709 17.5339L16.3592 17.4854M17.5751 16.7886L22.0513 16.8302C22.2545 16.8321 22.4176 16.9983 22.4157 17.2014L22.4138 17.4037C22.412 17.6069 22.2457 17.7701 22.0426 17.7682L17.5663 17.7266M17.5751 16.7886L12.1034 16.7377M17.5751 16.7886L17.5663 17.7266M12.1034 16.7377L7.62714 16.6961C7.42398 16.6942 7.25776 16.8573 7.25587 17.0605L7.25399 17.2628C7.2521 17.466 7.41526 17.6322 7.61842 17.6341L12.0528 17.6753M12.1034 16.7377L12.1498 11.9126C12.1502 11.8749 12.1348 11.8387 12.1073 11.8128V11.8128C12.085 11.79 12.0436 11.7397 12.0166 11.6993C11.9896 11.6588 11.9549 11.5844 11.9393 11.5328C11.9237 11.4827 11.9115 11.407 11.9119 11.3635C11.9123 11.3217 11.9275 11.2413 11.9458 11.1836C11.964 11.1258 12.005 11.0457 12.036 11.0025C12.0669 10.961 12.1383 10.8989 12.195 10.864C12.2533 10.8259 12.3308 10.7928 12.384 10.7837C12.4324 10.7745 12.5194 10.7704 12.5773 10.7758C12.648 10.7813 12.7122 10.7996 12.7779 10.834C12.8388 10.8652 12.9043 10.9157 12.9584 10.9773C13.011 11.0357 13.0554 11.107 13.0758 11.1619C13.0978 11.2216 13.1068 11.2893 13.1061 11.3714C13.1052 11.4599 13.095 11.5178 13.067 11.5883C13.0495 11.6326 13.0231 11.6777 12.9588 11.7518C12.8969 11.8234 12.858 11.9128 12.8571 12.0075L12.8084 17.0846C12.8065 17.2878 12.6403 17.4508 12.4371 17.449L7.96081 17.4073L14.0087 17.4636M12.1034 16.7377L12.0528 17.6753M14.0087 17.4636V17.4636C14.2095 17.4654 14.3748 17.3058 14.3799 17.105L14.5411 10.6989C14.5431 10.6205 14.5027 10.547 14.4355 10.5066V10.5066C14.3763 10.4706 14.2836 10.3974 14.231 10.3438C14.1784 10.2885 14.11 10.1946 14.0768 10.1331C14.0452 10.07 14.0075 9.97633 13.9951 9.9231C13.9811 9.86986 13.9708 9.76193 13.9716 9.68146C13.9723 9.601 13.9846 9.4965 13.9979 9.44834C14.0112 9.40018 14.0458 9.31359 14.0737 9.25591C14.1098 9.18542 14.1668 9.11192 14.2496 9.03061C14.326 8.95567 14.4103 8.89047 14.4701 8.86044C14.5234 8.83519 14.6074 8.80217 14.6558 8.78974C14.7042 8.77571 14.7671 8.76181 14.7929 8.75722C14.8187 8.75424 14.896 8.75496 14.9619 8.75879C15.0279 8.76262 15.1227 8.77799 15.1708 8.79292C15.219 8.80786 15.3023 8.84243 15.3552 8.86867C15.4145 8.8998 15.4976 8.96495 15.5725 9.04291C15.6538 9.12574 15.7094 9.2003 15.7442 9.27144C15.771 9.32963 15.804 9.41684 15.8164 9.46524C15.8288 9.51364 15.8391 9.61835 15.8384 9.69882C15.8376 9.77929 15.8254 9.88701 15.8104 9.93998C15.797 9.99297 15.7575 10.0859 15.7248 10.1484C15.6904 10.2093 15.6203 10.302 15.5667 10.3562C15.5359 10.3865 15.4916 10.423 15.4273 10.4673C15.3201 10.5411 15.2484 10.6584 15.2472 10.7885L15.1885 17.1067C15.1866 17.3098 15.3498 17.476 15.5529 17.4779L16.3592 17.4854M14.0087 17.4636L16.3592 17.4854M17.5663 17.7266L14.573 17.6987L12.0528 17.6753M17.5663 17.7266L12.0528 17.6753M10.6175 12.0967C10.6915 12.1038 10.7557 12.1221 10.8342 12.1615C10.9047 12.1959 10.9702 12.2432 11.0085 12.287C11.0419 12.3259 11.0879 12.3988 11.1116 12.4473C11.1479 12.5249 11.1524 12.5571 11.1511 12.6971C11.1497 12.8436 11.1447 12.8677 11.1004 12.9542C11.0847 12.9858 11.0597 13.0249 11.0188 13.0738C10.9555 13.1493 10.9127 13.2413 10.9118 13.3398L10.8915 15.5216C10.8896 15.7248 10.7234 15.8879 10.5202 15.8861L8.53614 15.8676C8.33299 15.8657 8.16983 15.6995 8.17172 15.4963L8.18223 14.3653C8.18284 14.2997 8.15738 14.2366 8.11144 14.1898V14.1898C8.07158 14.1492 8.02078 14.0731 7.99553 14.0197C7.95929 13.9357 7.95317 13.9019 7.9544 13.7699C7.95565 13.6347 7.96075 13.6058 8.00178 13.5209C8.02964 13.4664 8.08508 13.3897 8.13217 13.345C8.18575 13.294 8.25216 13.2496 8.31353 13.226C8.39107 13.1962 8.43942 13.1886 8.55529 13.1896C8.67762 13.1892 8.71296 13.1959 8.78827 13.232C8.83633 13.2566 8.9115 13.3072 8.95459 13.3462C9.00245 13.3918 9.04853 13.4566 9.0801 13.5228C9.1164 13.6004 9.13034 13.6585 9.13441 13.7406C9.13852 13.8179 9.13146 13.8838 9.11154 13.9496C9.09495 14.0026 9.06534 14.0715 9.04574 14.1019C9.03605 14.1158 9.02194 14.1341 9.00078 14.158C8.93461 14.2328 8.89076 14.3259 8.88983 14.4258L8.8864 14.7948C8.88451 14.998 9.04767 15.1642 9.25083 15.1661L9.81869 15.1714C10.0218 15.1733 10.1881 15.0101 10.19 14.8069L10.2045 13.2418C10.2049 13.1967 10.1867 13.1535 10.1541 13.1224V13.1224C10.127 13.0948 10.0888 13.051 10.0681 13.025C10.0491 12.9975 10.0175 12.9312 10.0003 12.8747C9.9815 12.8198 9.96779 12.736 9.96823 12.6894C9.96864 12.6443 9.98392 12.5591 10.0022 12.5014C10.0204 12.4436 10.0581 12.3683 10.0874 12.3315C10.1167 12.2964 10.1639 12.2486 10.1898 12.2263C10.2158 12.204 10.2643 12.1739 10.2951 12.158C10.3258 12.1422 10.3888 12.1203 10.4323 12.1078C10.4791 12.097 10.5564 12.0929 10.6175 12.0967ZM19.184 12.1699C19.2082 12.1685 19.266 12.1771 19.3126 12.1872C19.3576 12.1972 19.425 12.222 19.4602 12.24C19.4954 12.2581 19.545 12.2907 19.5722 12.3135C19.5993 12.3363 19.6439 12.385 19.6726 12.4207C19.7012 12.4579 19.7375 12.5339 19.7547 12.592C19.7718 12.6501 19.7855 12.7356 19.7851 12.7806C19.7847 12.8273 19.7694 12.9108 19.7496 12.9654C19.7314 13.0215 19.6986 13.0872 19.679 13.1144C19.6718 13.1231 19.6625 13.1338 19.6503 13.1472C19.5825 13.221 19.5387 13.3146 19.5378 13.4148L19.524 14.8937C19.5222 15.0969 19.6853 15.2631 19.8885 15.265L20.4563 15.2703C20.6595 15.2722 20.8257 15.109 20.8276 14.9058L20.8317 14.4613C20.8322 14.4097 20.8118 14.36 20.7751 14.3236V14.3236C20.7432 14.2928 20.7018 14.2409 20.6812 14.2101C20.6621 14.1794 20.6338 14.1099 20.6182 14.0566C20.5995 13.9905 20.5937 13.9244 20.5992 13.8472C20.6048 13.7652 20.6199 13.7074 20.6576 13.6305C20.6904 13.5648 20.7377 13.5009 20.7864 13.4562C20.8302 13.418 20.9063 13.3688 20.9548 13.3452C21.0307 13.3105 21.0662 13.3043 21.1885 13.3071C21.3044 13.3082 21.3526 13.3167 21.4295 13.348C21.4905 13.3727 21.556 13.4183 21.6087 13.4703C21.6549 13.5158 21.7089 13.5936 21.7358 13.6486C21.7752 13.7342 21.7798 13.7632 21.7785 13.8984C21.7773 14.0304 21.7705 14.0641 21.7327 14.1475C21.7164 14.1804 21.6899 14.2221 21.6447 14.2759C21.5819 14.3506 21.5401 14.4419 21.5392 14.5395L21.5291 15.6205C21.5272 15.8237 21.361 15.9868 21.1579 15.985L19.1738 15.9665C18.9706 15.9646 18.8075 15.7984 18.8094 15.5952L18.8302 13.3573C18.8307 13.2946 18.8064 13.2343 18.7625 13.1896V13.1896C18.7242 13.1522 18.6734 13.0777 18.6482 13.0243C18.6055 12.937 18.6009 12.9129 18.6023 12.7664C18.6036 12.6264 18.6087 12.5943 18.6464 12.5173C18.671 12.4693 18.7151 12.4005 18.746 12.3654C18.7769 12.3303 18.845 12.2794 18.8984 12.2509C18.9502 12.2224 19.0261 12.1925 19.0664 12.1849C19.1067 12.1772 19.1583 12.1712 19.184 12.1699Z" stroke="#FFF278" stroke-width="0.0246199" stroke-linejoin="round"/>
<g filter="url(#filter4_f_408_222)">
<path d="M15.0606 9.15358C15.0173 9.1403 14.945 9.12837 14.8999 9.12956C14.8564 9.12915 14.7871 9.13977 14.7468 9.15066C14.7065 9.16317 14.6385 9.20116 14.5931 9.23454C14.5348 9.27745 14.4957 9.32537 14.4547 9.40385C14.4056 9.49836 14.3972 9.53047 14.3964 9.62059C14.3959 9.67853 14.408 9.76233 14.422 9.80753C14.4377 9.85113 14.4805 9.92395 14.5171 9.96775C14.5585 10.0132 14.624 10.0653 14.6817 10.0948C14.7698 10.1391 14.7891 10.1425 14.9147 10.1388C15.029 10.1351 15.0661 10.1257 15.1389 10.0862C15.1874 10.0609 15.2539 10.0084 15.2896 9.96849C15.3238 9.92857 15.3647 9.85975 15.3812 9.81644C15.3961 9.77152 15.4097 9.68795 15.4103 9.63002C15.4111 9.53989 15.4034 9.50763 15.356 9.41223C15.3165 9.333 15.2783 9.28436 15.2208 9.24037C15.1776 9.20617 15.1056 9.16688 15.0606 9.15358Z" fill="#FFFDED"/>
<path d="M12.5123 11.0371C12.512 11.0371 12.5117 11.0371 12.5114 11.0371L12.513 11.0371C12.5128 11.0371 12.5125 11.0371 12.5123 11.0371C12.5461 11.0376 12.5968 11.0493 12.6254 11.0639C12.6527 11.0786 12.6927 11.1064 12.7134 11.1259C12.7341 11.1438 12.7594 11.1923 12.7719 11.2327C12.786 11.2827 12.7888 11.3246 12.7771 11.3695C12.7703 11.4049 12.7506 11.4513 12.7343 11.4721C12.718 11.4929 12.6872 11.5232 12.6645 11.5407C12.6418 11.5582 12.5885 11.5754 12.5434 11.5798C12.4806 11.5872 12.4468 11.5805 12.3907 11.5542C12.3491 11.5329 12.3012 11.4938 12.279 11.4582C12.2488 11.4129 12.2395 11.379 12.2401 11.3066C12.2409 11.2277 12.2475 11.2052 12.2915 11.1525C12.3191 11.119 12.3662 11.0792 12.3969 11.065C12.4274 11.0493 12.4785 11.037 12.5123 11.0371Z" fill="#FFFDED"/>
<path d="M17.381 11.1113C17.3505 11.095 17.2976 11.0816 17.2622 11.0813C17.2267 11.0825 17.1719 11.0965 17.1395 11.1139C17.1072 11.1313 17.0601 11.1711 17.0373 11.2047C17.0047 11.2495 16.9931 11.2848 16.9909 11.3443C16.9905 11.3878 16.9996 11.4458 17.0139 11.4733C17.0265 11.4991 17.0551 11.538 17.0759 11.5575C17.095 11.577 17.1318 11.5999 17.1575 11.6098C17.1815 11.6197 17.2281 11.6282 17.2619 11.6285C17.2941 11.6288 17.3505 11.6148 17.3861 11.5974C17.4217 11.5801 17.4687 11.5403 17.4916 11.5067C17.5226 11.4619 17.5325 11.4282 17.5332 11.3558C17.5339 11.2769 17.5277 11.2543 17.4848 11.2008C17.4577 11.1668 17.4114 11.1261 17.381 11.1113Z" fill="#FFFDED"/>
<path d="M10.632 12.3716C10.6178 12.368 10.6033 12.3645 10.5907 12.3616C10.5671 12.3562 10.543 12.3572 10.5197 12.3638C10.506 12.3677 10.49 12.3726 10.4743 12.3782C10.4387 12.3907 10.3934 12.4176 10.3723 12.4384C10.3528 12.4575 10.3251 12.4975 10.3119 12.5247C10.2988 12.5536 10.2871 12.6033 10.2868 12.6339C10.2865 12.6645 10.3005 12.7194 10.3178 12.7549C10.3352 12.7905 10.3686 12.8343 10.3942 12.8538C10.4182 12.8717 10.4646 12.8931 10.4983 12.9031C10.5369 12.9131 10.5803 12.9119 10.6223 12.9026C10.6578 12.8949 10.7095 12.868 10.7371 12.8425C10.7663 12.8186 10.7988 12.7803 10.8103 12.7547C10.8234 12.7307 10.8336 12.6792 10.834 12.639C10.8343 12.5988 10.8252 12.5472 10.8125 12.5213C10.8015 12.4971 10.7696 12.4582 10.7409 12.4321C10.7138 12.4077 10.6641 12.3815 10.632 12.3716Z" fill="#FFFDED"/>
<path d="M19.3222 12.4781C19.2965 12.465 19.2516 12.4501 19.2211 12.445C19.1873 12.4398 19.139 12.4442 19.1002 12.4584C19.0647 12.4709 19.0178 12.4978 18.9983 12.5186C18.9772 12.5377 18.9495 12.5728 18.9364 12.5969C18.9233 12.6225 18.9131 12.6739 18.9128 12.7141C18.9124 12.7544 18.9216 12.8059 18.9342 12.8302C18.9452 12.8561 18.9771 12.895 19.0058 12.9194C19.0329 12.9454 19.0826 12.9716 19.1163 12.9816C19.1532 12.9916 19.1999 12.992 19.2402 12.9827C19.2757 12.975 19.3226 12.9545 19.3452 12.9386C19.3679 12.9228 19.4021 12.8812 19.4234 12.846C19.4512 12.798 19.4595 12.7643 19.4569 12.7015C19.4542 12.6435 19.4401 12.6031 19.4099 12.561C19.3845 12.5286 19.3462 12.4912 19.3222 12.4781Z" fill="#FFFDED"/>
<path d="M8.63257 13.4651C8.60852 13.4552 8.56515 13.4468 8.53618 13.4465C8.5088 13.4479 8.45884 13.4555 8.42816 13.4664C8.39748 13.4774 8.35696 13.5076 8.3358 13.5332C8.31623 13.5604 8.29172 13.6004 8.28345 13.6244C8.27355 13.6501 8.26509 13.6951 8.2648 13.7257C8.26452 13.7562 8.2769 13.8095 8.29108 13.8418C8.30688 13.8741 8.34188 13.9179 8.36745 13.9375C8.40738 13.97 8.4347 13.9751 8.53608 13.976C8.63747 13.977 8.66487 13.9724 8.70541 13.9406C8.73134 13.9215 8.76714 13.8784 8.78193 13.8463C8.79832 13.8143 8.81169 13.7613 8.81197 13.7307C8.81226 13.7002 8.80307 13.6502 8.79046 13.6211C8.77945 13.5936 8.74928 13.5499 8.72375 13.5255C8.69823 13.5011 8.65825 13.4734 8.63257 13.4651Z" fill="#FFFDED"/>
<path d="M21.2819 13.5827C21.2578 13.5728 21.2144 13.5644 21.1855 13.5641C21.1581 13.5655 21.1081 13.5731 21.0775 13.584C21.0468 13.595 21.0063 13.6252 20.9851 13.6508C20.9655 13.678 20.941 13.718 20.9327 13.742C20.9229 13.7677 20.9144 13.8127 20.9141 13.8433C20.9138 13.8738 20.9262 13.9271 20.9404 13.9594C20.9562 13.9917 20.9896 14.0355 21.0167 14.0551C21.0567 14.0876 21.084 14.0927 21.1854 14.0936C21.2868 14.0946 21.3142 14.09 21.3547 14.0582C21.3822 14.0391 21.4164 13.996 21.4312 13.964C21.4476 13.9319 21.461 13.8789 21.4613 13.8483C21.4616 13.8178 21.4524 13.7678 21.4398 13.7387C21.4287 13.7112 21.3986 13.6675 21.3731 13.6431C21.3475 13.6187 21.3075 13.591 21.2819 13.5827Z" fill="#FFFDED"/>
<path d="M14.8999 9.12956C14.945 9.12837 15.0173 9.1403 15.0606 9.15358C15.1056 9.16688 15.1776 9.20617 15.2208 9.24037C15.2783 9.28436 15.3165 9.333 15.356 9.41223C15.4034 9.50763 15.4111 9.53989 15.4103 9.63002C15.4097 9.68795 15.3961 9.77152 15.3812 9.81644C15.3647 9.85975 15.3238 9.92857 15.2896 9.96849C15.2539 10.0084 15.1874 10.0609 15.1389 10.0862C15.0661 10.1257 15.029 10.1351 14.9147 10.1388C14.7891 10.1425 14.7698 10.1391 14.6817 10.0948C14.624 10.0653 14.5585 10.0132 14.5171 9.96775C14.4805 9.92395 14.4377 9.85113 14.422 9.80753C14.408 9.76233 14.3959 9.67853 14.3964 9.62059C14.3972 9.53047 14.4056 9.49836 14.4547 9.40385C14.4957 9.32537 14.5348 9.27745 14.5931 9.23454C14.6385 9.20116 14.7065 9.16317 14.7468 9.15066C14.7871 9.13977 14.8565 9.12915 14.8999 9.12956ZM12.5114 11.0371C12.5452 11.0374 12.5966 11.0492 12.6254 11.0639C12.6527 11.0786 12.6927 11.1064 12.7134 11.1259C12.7341 11.1438 12.7594 11.1923 12.7719 11.2327C12.786 11.2827 12.7888 11.3246 12.7771 11.3695C12.7703 11.4049 12.7506 11.4513 12.7343 11.4721C12.718 11.4929 12.6872 11.5232 12.6645 11.5407C12.6418 11.5582 12.5885 11.5754 12.5434 11.5798C12.4806 11.5872 12.4468 11.5805 12.3907 11.5542C12.3491 11.5329 12.3012 11.4938 12.279 11.4582C12.2488 11.4129 12.2395 11.379 12.2401 11.3066C12.2409 11.2277 12.2475 11.2052 12.2915 11.1525C12.3191 11.119 12.3662 11.0792 12.3969 11.065C12.4276 11.0492 12.4792 11.0368 12.513 11.0371L12.5114 11.0371ZM17.2622 11.0813C17.2976 11.0816 17.3505 11.095 17.381 11.1113C17.4114 11.1261 17.4577 11.1668 17.4848 11.2008C17.5277 11.2543 17.5339 11.2769 17.5332 11.3558C17.5325 11.4282 17.5226 11.4619 17.4916 11.5067C17.4687 11.5403 17.4217 11.5801 17.3861 11.5974C17.3505 11.6148 17.2941 11.6288 17.2619 11.6285C17.2281 11.6282 17.1815 11.6197 17.1575 11.6098C17.1318 11.5999 17.095 11.577 17.0759 11.5575C17.0551 11.538 17.0265 11.4991 17.0139 11.4733C16.9996 11.4458 16.9905 11.3878 16.9909 11.3443C16.9931 11.2848 17.0047 11.2495 17.0373 11.2047C17.0601 11.1711 17.1072 11.1313 17.1395 11.1139C17.1719 11.0965 17.2267 11.0825 17.2622 11.0813ZM10.632 12.3716C10.6178 12.368 10.6033 12.3645 10.5907 12.3616C10.5671 12.3562 10.543 12.3572 10.5197 12.3638C10.506 12.3677 10.49 12.3726 10.4743 12.3782C10.4387 12.3907 10.3934 12.4176 10.3723 12.4384C10.3528 12.4575 10.3251 12.4975 10.3119 12.5247C10.2988 12.5536 10.2871 12.6033 10.2868 12.6339C10.2865 12.6645 10.3005 12.7194 10.3178 12.7549C10.3352 12.7905 10.3686 12.8343 10.3942 12.8538C10.4182 12.8717 10.4646 12.8931 10.4983 12.9031C10.5369 12.9131 10.5803 12.9119 10.6223 12.9026C10.6578 12.8949 10.7095 12.868 10.7371 12.8425C10.7663 12.8186 10.7988 12.7803 10.8103 12.7547C10.8234 12.7307 10.8336 12.6792 10.834 12.639C10.8343 12.5988 10.8252 12.5472 10.8125 12.5213C10.8015 12.4971 10.7696 12.4582 10.7409 12.4321C10.7138 12.4077 10.6641 12.3815 10.632 12.3716ZM19.2211 12.445C19.2516 12.4501 19.2965 12.465 19.3222 12.4781C19.3462 12.4912 19.3845 12.5286 19.4099 12.561C19.4401 12.6031 19.4542 12.6435 19.4569 12.7015C19.4595 12.7643 19.4512 12.798 19.4234 12.846C19.4021 12.8812 19.3679 12.9228 19.3452 12.9386C19.3226 12.9545 19.2757 12.975 19.2402 12.9827C19.1999 12.992 19.1532 12.9916 19.1163 12.9816C19.0826 12.9716 19.0329 12.9454 19.0058 12.9194C18.9771 12.895 18.9452 12.8561 18.9342 12.8302C18.9216 12.8059 18.9124 12.7544 18.9128 12.7141C18.9131 12.6739 18.9233 12.6225 18.9364 12.5969C18.9495 12.5728 18.9772 12.5377 18.9983 12.5186C19.0178 12.4978 19.0647 12.4709 19.1002 12.4584C19.139 12.4442 19.1873 12.4398 19.2211 12.445ZM8.53618 13.4465C8.56515 13.4468 8.60852 13.4552 8.63257 13.4651C8.65825 13.4734 8.69823 13.5011 8.72375 13.5255C8.74928 13.5499 8.77945 13.5936 8.79046 13.6211C8.80307 13.6502 8.81226 13.7002 8.81197 13.7307C8.81169 13.7613 8.79832 13.8143 8.78193 13.8463C8.76714 13.8784 8.73134 13.9215 8.70541 13.9406C8.66487 13.9724 8.63747 13.977 8.53608 13.976C8.4347 13.9751 8.40738 13.97 8.36745 13.9375C8.34188 13.9179 8.30688 13.8741 8.29108 13.8418C8.2769 13.8095 8.26452 13.7562 8.2648 13.7257C8.26509 13.6951 8.27355 13.6501 8.28345 13.6244C8.29172 13.6004 8.31623 13.5604 8.3358 13.5332C8.35696 13.5076 8.39748 13.4774 8.42816 13.4664C8.45884 13.4555 8.5088 13.4479 8.53618 13.4465ZM21.1855 13.5641C21.2144 13.5644 21.2578 13.5728 21.2819 13.5827C21.3075 13.591 21.3475 13.6187 21.3731 13.6431C21.3986 13.6675 21.4287 13.7112 21.4398 13.7387C21.4524 13.7678 21.4616 13.8178 21.4613 13.8483C21.461 13.8789 21.4476 13.9319 21.4312 13.964C21.4164 13.996 21.3822 14.0391 21.3547 14.0582C21.3142 14.09 21.2868 14.0946 21.1854 14.0936C21.084 14.0927 21.0567 14.0876 21.0167 14.0551C20.9896 14.0355 20.9562 13.9917 20.9404 13.9594C20.9262 13.9271 20.9138 13.8738 20.9141 13.8433C20.9144 13.8127 20.9229 13.7677 20.9327 13.742C20.941 13.718 20.9655 13.678 20.9851 13.6508C21.0063 13.6252 21.0468 13.595 21.0775 13.584C21.1081 13.5731 21.1581 13.5655 21.1855 13.5641Z" stroke="#FFF278" stroke-width="0.0246199"/>
</g>
<path d="M17.2094 16.7851L12.4274 16.7407C12.2243 16.7388 12.058 16.9019 12.0562 17.1051L12.0544 17.289C12.0526 17.4922 12.2157 17.6584 12.4189 17.6603L17.2009 17.7047C17.404 17.7066 17.5702 17.5435 17.5721 17.3403L17.5738 17.1564C17.5757 16.9532 17.4126 16.787 17.2094 16.7851Z" fill="#FFF278"/>
</g>
</g>
</g>
<g filter="url(#filter5_d_408_222)">
<path d="M9.59119 20.0976L3.04383 15.2933L3.04675 14.9794L9.6823 10.2976L9.90015 10.6252L3.49872 15.1347L9.81509 19.7742L9.59119 20.0976Z" fill="#FFF278"/>
<path d="M9.59119 20.0976L9.41709 20.3349L9.83316 20.2651L9.59119 20.0976ZM3.04383 15.2933L2.74955 15.2905L2.86973 15.5305L3.04383 15.2933ZM3.04675 14.9794L2.87709 14.7389L2.75247 14.9767L3.04675 14.9794ZM9.6823 10.2976L9.92735 10.1346L9.51264 10.0572L9.6823 10.2976ZM9.90015 10.6252L10.0696 10.8658L10.1452 10.4622L9.90015 10.6252ZM3.49872 15.1347L3.32924 14.8941L3.32451 15.3719L3.49872 15.1347ZM9.81509 19.7742L10.0571 19.9417L9.98931 19.537L9.81509 19.7742ZM9.76529 19.8603L3.21793 15.056L2.86973 15.5305L9.41709 20.3349L9.76529 19.8603ZM3.33811 15.296L3.34103 14.9821L2.75247 14.9767L2.74955 15.2905L3.33811 15.296ZM3.21641 15.2198L9.85196 10.5381L9.51264 10.0572L2.87709 14.7389L3.21641 15.2198ZM9.43726 10.4606L9.65511 10.7881L10.1452 10.4622L9.92735 10.1346L9.43726 10.4606ZM9.73067 10.3846L3.32924 14.8941L3.66821 15.3753L10.0696 10.8658L9.73067 10.3846ZM3.32451 15.3719L9.64088 20.0113L9.98931 19.537L3.67294 14.8975L3.32451 15.3719ZM9.57312 19.6067L9.34922 19.9301L9.83316 20.2651L10.0571 19.9417L9.57312 19.6067Z" fill="#F2D469"/>
</g>
</g>
<defs>
<filter id="filter0_d_408_222" x="19.817" y="10.5044" width="7.19761" height="10.3783" filterUnits="userSpaceOnUse" color-interpolation-filters="sRGB">
<feFlood flood-opacity="0" result="BackgroundImageFix"/>
<feColorMatrix in="SourceAlpha" type="matrix" values="0 0 0 0 0 0 0 0 0 0 0 0 0 0 0 0 0 0 127 0" result="hardAlpha"/>
<feOffset dy="0.367862"/>
<feGaussianBlur stdDeviation="0.0735723"/>
<feComposite in2="hardAlpha" operator="out"/>
<feColorMatrix type="matrix" values="0 0 0 0 0 0 0 0 0 0 0 0 0 0 0 0 0 0 0.25 0"/>
<feBlend mode="normal" in2="BackgroundImageFix" result="effect1_dropShadow_408_222"/>
<feBlend mode="normal" in="SourceGraphic" in2="effect1_dropShadow_408_222" result="shape"/>
</filter>
<filter id="filter1_dd_408_222" x="6.77834" y="8.74307" width="16.113" height="9.50077" filterUnits="userSpaceOnUse" color-interpolation-filters="sRGB">
<feFlood flood-opacity="0" result="BackgroundImageFix"/>
<feColorMatrix in="SourceAlpha" type="matrix" values="0 0 0 0 0 0 0 0 0 0 0 0 0 0 0 0 0 0 127 0" result="hardAlpha"/>
<feOffset dx="0.23168" dy="0.23168"/>
<feGaussianBlur stdDeviation="0.11584"/>
<feComposite in2="hardAlpha" operator="out"/>
<feColorMatrix type="matrix" values="0 0 0 0 0 0 0 0 0 0 0 0 0 0 0 0 0 0 0.25 0"/>
<feBlend mode="normal" in2="BackgroundImageFix" result="effect1_dropShadow_408_222"/>
<feColorMatrix in="SourceAlpha" type="matrix" values="0 0 0 0 0 0 0 0 0 0 0 0 0 0 0 0 0 0 127 0" result="hardAlpha"/>
<feOffset dx="-0.23168" dy="0.23168"/>
<feGaussianBlur stdDeviation="0.11584"/>
<feComposite in2="hardAlpha" operator="out"/>
<feColorMatrix type="matrix" values="0 0 0 0 0 0 0 0 0 0 0 0 0 0 0 0 0 0 0.25 0"/>
<feBlend mode="normal" in2="effect1_dropShadow_408_222" result="effect2_dropShadow_408_222"/>
<feBlend mode="normal" in="SourceGraphic" in2="effect2_dropShadow_408_222" result="shape"/>
</filter>
<filter id="filter2_d_408_222" x="7.09455" y="8.74307" width="15.4806" height="9.3317" filterUnits="userSpaceOnUse" color-interpolation-filters="sRGB">
<feFlood flood-opacity="0" result="BackgroundImageFix"/>
<feColorMatrix in="SourceAlpha" type="matrix" values="0 0 0 0 0 0 0 0 0 0 0 0 0 0 0 0 0 0 127 0" result="hardAlpha"/>
<feOffset dy="0.147145"/>
<feGaussianBlur stdDeviation="0.0735723"/>
<feComposite in2="hardAlpha" operator="out"/>
<feColorMatrix type="matrix" values="0 0 0 0 0.835294 0 0 0 0 0.607843 0 0 0 0 0.184314 0 0 0 0.15 0"/>
<feBlend mode="normal" in2="BackgroundImageFix" result="effect1_dropShadow_408_222"/>
<feBlend mode="normal" in="SourceGraphic" in2="effect1_dropShadow_408_222" result="shape"/>
</filter>
<filter id="filter3_d_408_222" x="7.16813" y="8.59593" width="15.7749" height="9.62599" filterUnits="userSpaceOnUse" color-interpolation-filters="sRGB">
<feFlood flood-opacity="0" result="BackgroundImageFix"/>
<feColorMatrix in="SourceAlpha" type="matrix" values="0 0 0 0 0 0 0 0 0 0 0 0 0 0 0 0 0 0 127 0" result="hardAlpha"/>
<feOffset dx="0.220717" dy="0.147145"/>
<feGaussianBlur stdDeviation="0.147145"/>
<feComposite in2="hardAlpha" operator="out"/>
<feColorMatrix type="matrix" values="0 0 0 0 0.835294 0 0 0 0 0.607843 0 0 0 0 0.184314 0 0 0 0.15 0"/>
<feBlend mode="normal" in2="BackgroundImageFix" result="effect1_dropShadow_408_222"/>
<feBlend mode="normal" in="SourceGraphic" in2="effect1_dropShadow_408_222" result="shape"/>
</filter>
<filter id="filter4_f_408_222" x="7.99494" y="8.85965" width="13.7362" height="5.5039" filterUnits="userSpaceOnUse" color-interpolation-filters="sRGB">
<feFlood flood-opacity="0" result="BackgroundImageFix"/>
<feBlend mode="normal" in="SourceGraphic" in2="BackgroundImageFix" result="shape"/>
<feGaussianBlur stdDeviation="0.128752" result="effect1_foregroundBlur_408_222"/>
</filter>
<filter id="filter5_d_408_222" x="2.85261" y="10.2363" width="7.19761" height="10.3783" filterUnits="userSpaceOnUse" color-interpolation-filters="sRGB">
<feFlood flood-opacity="0" result="BackgroundImageFix"/>
<feColorMatrix in="SourceAlpha" type="matrix" values="0 0 0 0 0 0 0 0 0 0 0 0 0 0 0 0 0 0 127 0" result="hardAlpha"/>
<feOffset dy="0.367862"/>
<feGaussianBlur stdDeviation="0.0735723"/>
<feComposite in2="hardAlpha" operator="out"/>
<feColorMatrix type="matrix" values="0 0 0 0 0 0 0 0 0 0 0 0 0 0 0 0 0 0 0.25 0"/>
<feBlend mode="normal" in2="BackgroundImageFix" result="effect1_dropShadow_408_222"/>
<feBlend mode="normal" in="SourceGraphic" in2="effect1_dropShadow_408_222" result="shape"/>
</filter>
<clipPath id="clip0_408_222">
<rect width="30" height="30" fill="white"/>
</clipPath>
</defs>
</svg>
