<svg width="49" height="47" viewBox="0 0 49 47" fill="none" xmlns="http://www.w3.org/2000/svg">
<path d="M24.5 0C10.9637 0 0 10.5162 0 23.5C0 33.8987 7.01312 42.6819 16.7519 45.7956C17.9769 46.0013 18.4362 45.2963 18.4362 44.6794C18.4362 44.1213 18.4056 42.2706 18.4056 40.3025C12.25 41.3894 10.6575 38.8631 10.1675 37.5412C9.89187 36.8656 8.6975 34.78 7.65625 34.2219C6.79875 33.7812 5.57375 32.6944 7.62563 32.665C9.555 32.6356 10.9331 34.3687 11.3925 35.0737C13.5975 38.6281 17.1194 37.6294 18.5281 37.0125C18.7425 35.485 19.3856 34.4569 20.09 33.8694C14.6387 33.2819 8.9425 31.255 8.9425 22.2662C8.9425 19.7106 9.89188 17.5956 11.4538 15.9506C11.2088 15.3631 10.3512 12.9544 11.6987 9.72312C11.6987 9.72312 13.7506 9.10625 18.4362 12.1319C20.3962 11.6031 22.4788 11.3387 24.5613 11.3387C26.6438 11.3387 28.7263 11.6031 30.6863 12.1319C35.3719 9.07688 37.4238 9.72312 37.4238 9.72312C38.7713 12.9544 37.9138 15.3631 37.6688 15.9506C39.2306 17.5956 40.18 19.6812 40.18 22.2662C40.18 31.2844 34.4531 33.2819 29.0019 33.8694C29.89 34.6037 30.6556 36.0138 30.6556 38.2169C30.6556 41.36 30.625 43.8863 30.625 44.6794C30.625 45.2963 31.0844 46.0306 32.3094 45.7956C37.1733 44.2211 41.3999 41.2229 44.3941 37.2233C47.3882 33.2236 48.9991 28.424 49 23.5C49 10.5162 38.0363 0 24.5 0Z" fill="#D9CCFF"/>
</svg>
