<svg width="28" height="28" viewBox="0 0 28 28" fill="none" xmlns="http://www.w3.org/2000/svg">
<path d="M5.15455 23C4.84061 23 4.5697 22.8519 4.34182 22.5556C4.11394 22.2601 4 21.9092 4 21.5029H7.28636C6.86818 21.5029 6.51909 21.3214 6.23909 20.9583C5.95848 20.5945 5.81818 20.1415 5.81818 19.5992V6.90373C5.81818 6.36149 5.95848 5.90884 6.23909 5.54578C6.51909 5.18193 6.86818 5 7.28636 5H20.7136C21.1318 5 21.4809 5.18193 21.7609 5.54578C22.0415 5.90884 22.1818 6.36149 22.1818 6.90373V19.5992C22.1818 20.1415 22.0418 20.5941 21.7618 20.9572C21.4812 21.321 21.1318 21.5029 20.7136 21.5029H24C24 21.9092 23.8861 22.2601 23.6582 22.5556C23.4303 22.8511 23.1597 22.9988 22.8464 22.9988L5.15455 23ZM14 22.4106C14.1527 22.4106 14.2842 22.3391 14.3945 22.1961C14.5048 22.053 14.5597 21.8825 14.5591 21.6845C14.5591 21.4864 14.5042 21.3159 14.3945 21.1729C14.2842 21.0299 14.1527 20.9583 14 20.9583C13.8473 20.9583 13.7158 21.0299 13.6055 21.1729C13.4958 21.3159 13.4409 21.4864 13.4409 21.6845C13.4409 21.8825 13.4958 22.053 13.6055 22.1961C13.7158 22.3383 13.8473 22.4094 14 22.4094M7.28636 20.3242H20.7136C20.853 20.3242 20.9812 20.2487 21.0982 20.0978C21.2145 19.9462 21.2727 19.78 21.2727 19.5992V6.90373C21.2727 6.72299 21.2145 6.55678 21.0982 6.40511C20.9812 6.25422 20.853 6.17878 20.7136 6.17878H7.28636C7.14697 6.17878 7.01879 6.25422 6.90182 6.40511C6.78545 6.55678 6.72727 6.72299 6.72727 6.90373V19.5992C6.72727 19.78 6.78545 19.9462 6.90182 20.0978C7.01879 20.2487 7.14697 20.3242 7.28636 20.3242Z" fill="#F7F5FB"/>
</svg>
