<svg width="30" height="30" viewBox="0 0 30 30" fill="none" xmlns="http://www.w3.org/2000/svg">
<g clip-path="url(#clip0_822_6)">
<path d="M5 7.5H25V20H5M25 22.5C25.663 22.5 26.2989 22.2366 26.7678 21.7678C27.2366 21.2989 27.5 20.663 27.5 20V7.5C27.5 6.83696 27.2366 6.20107 26.7678 5.73223C26.2989 5.26339 25.663 5 25 5H5C3.6125 5 2.5 6.1125 2.5 7.5V20C2.5 20.663 2.76339 21.2989 3.23223 21.7678C3.70107 22.2366 4.33696 22.5 5 22.5H0V25H30V22.5H25Z" fill="#44DB4F"/>
</g>
<defs>
<clipPath id="clip0_822_6">
<rect width="30" height="30" fill="white"/>
</clipPath>
</defs>
</svg>
