<svg width="99" height="73" viewBox="0 0 99 73" fill="none" xmlns="http://www.w3.org/2000/svg">
<g filter="url(#filter0_ddii_217_220)">
<path d="M15.3722 10.0492C13.5271 10.0492 12.0313 11.545 12.0313 13.3902V50.4763C12.0313 50.7138 11.9302 50.94 11.7533 51.0984L4.26159 57.8104C2.70571 59.1794 1.82542 61.0359 1.8125 62.9755C1.82324 64.8922 2.69014 66.7276 4.22476 68.0829C5.75938 69.4382 7.83768 70.2038 10.0079 70.2132H88.9921C91.1623 70.2038 93.2406 69.4382 94.7752 68.0829C96.3099 66.7276 97.1768 64.8922 97.1875 62.9755C97.1742 61.0342 96.2941 59.176 94.7384 57.8044L87.2468 51.0954C87.0699 50.937 86.9688 50.7107 86.9688 50.4732V13.3902C86.9688 11.545 85.4729 10.0492 83.6278 10.0492H15.3722ZM18.8438 16.9009C18.8438 16.4396 19.2177 16.0656 19.679 16.0656H79.321C79.7823 16.0656 80.1563 16.4396 80.1563 16.9009V48.3206C80.1563 48.7819 79.7823 49.1558 79.321 49.1558H19.679C19.2177 49.1558 18.8438 48.7819 18.8438 48.3206V16.9009ZM16.926 55.1722H81.7578C81.9595 55.1722 82.1543 55.2452 82.3064 55.3776L89.9492 62.0339C90.2198 62.2896 90.3717 62.6256 90.375 62.9755C90.3848 63.1382 90.3558 63.3009 90.2898 63.453C90.2237 63.6051 90.1222 63.7432 89.9918 63.8584C89.8613 63.9736 89.7049 64.0632 89.5327 64.1216C89.3605 64.1799 89.1763 64.2055 88.9921 64.1968H10.0079C9.82374 64.2055 9.63955 64.1799 9.46731 64.1216C9.29508 64.0632 9.13867 63.9736 9.00824 63.8584C8.87781 63.7432 8.77628 63.6051 8.71025 63.453C8.64423 63.3009 8.61518 63.1382 8.625 62.9755C8.625 62.6446 8.78509 62.2716 9.05078 62.0339L16.9269 55.1745C16.9278 55.1737 16.9272 55.1722 16.926 55.1722V55.1722Z" fill="#F2D469"/>
<path d="M4.46851 58.0456L4.4706 58.0437L11.9624 51.3317C12.2055 51.1139 12.3445 50.8028 12.3445 50.4763V13.3902C12.3445 11.718 13.7 10.3624 15.3722 10.3624H83.6278C85.2999 10.3624 86.6555 11.718 86.6555 13.3902V50.4732C86.6555 50.7998 86.7946 51.1109 87.0378 51.3288L94.5294 58.0378L94.5313 58.0394C96.0247 59.3561 96.8611 61.131 96.8743 62.9759C96.8634 64.7959 96.0402 66.5478 94.5679 67.8481C93.094 69.1498 91.0906 69.8906 88.9916 69.9C88.9913 69.9 88.991 69.9 88.9907 69.9H10.0093C10.009 69.9 10.0087 69.9 10.0084 69.9C7.90944 69.8906 5.90602 69.1498 4.4321 67.8481C2.95971 66.5478 2.1365 64.7958 2.12572 62.9757C2.13857 61.1327 2.97499 59.3597 4.46851 58.0456ZM90.1643 61.8063L90.1645 61.8061L90.1549 61.7977L82.5121 55.1414C82.303 54.9593 82.0351 54.859 81.7578 54.859H16.926C16.8338 54.859 16.7509 54.8989 16.6936 54.9623L8.84505 61.7977L8.84196 61.8005C8.51191 62.0957 8.31475 62.5492 8.31182 62.9661C8.30065 63.1756 8.3389 63.3841 8.42294 63.5777C8.50814 63.774 8.63781 63.9491 8.8009 64.0932C8.9639 64.2371 9.15706 64.3472 9.36687 64.4182C9.57425 64.4884 9.79481 64.5195 10.0149 64.5101H88.9851C89.2052 64.5195 89.4258 64.4884 89.6331 64.4182C89.8429 64.3472 90.0361 64.2371 90.1991 64.0932C90.3622 63.9491 90.4919 63.774 90.5771 63.5777C90.6613 63.3837 90.6995 63.1747 90.6881 62.9647C90.6818 62.5268 90.4904 62.1144 90.1643 61.8063ZM16.6912 55.3798L16.6913 55.3796C16.6879 55.3757 16.6845 55.3717 16.6812 55.3677C16.6844 55.3718 16.6877 55.3758 16.6912 55.3798ZM79.321 15.7524H19.679C19.0447 15.7524 18.5305 16.2666 18.5305 16.9009V48.3206C18.5305 48.9549 19.0447 49.4691 19.679 49.4691H79.321C79.9553 49.4691 80.4695 48.9549 80.4695 48.3206V16.9009C80.4695 16.2666 79.9553 15.7524 79.321 15.7524Z" stroke="white" stroke-width="0.626437" stroke-linejoin="round"/>
</g>
<g filter="url(#filter1_dii_217_220)">
<path d="M59.7477 44.7945L59.2563 44.0704L73.4026 33.881L59.2563 23.7174L59.7477 22.9933L74.4112 33.5448V34.243L59.7477 44.7945Z" fill="#FFFDED"/>
<path d="M59.7477 44.7945L60.1301 45.3259L59.206 45.1621L59.7477 44.7945ZM59.2563 44.0704L58.7146 44.438L58.8737 43.5392L59.2563 44.0704ZM73.4026 33.881L73.7845 33.3493L73.7852 34.4122L73.4026 33.881ZM59.2563 23.7174L58.8744 24.2491L58.7146 23.3498L59.2563 23.7174ZM59.7477 22.9933L59.206 22.6257L60.1301 22.4619L59.7477 22.9933ZM74.4112 33.5448L74.7935 33.0134L75.0658 33.5448H74.4112ZM74.4112 34.243H75.0658L74.7935 34.7744L74.4112 34.243ZM59.206 45.1621L58.7146 44.438L59.7981 43.7028L60.2894 44.4269L59.206 45.1621ZM58.8737 43.5392L73.02 33.3498L73.7852 34.4122L59.639 44.6016L58.8737 43.5392ZM73.0206 34.4126L58.8744 24.2491L59.6383 23.1857L73.7845 33.3493L73.0206 34.4126ZM58.7146 23.3498L59.206 22.6257L60.2894 23.3609L59.7981 24.085L58.7146 23.3498ZM60.1301 22.4619L74.7935 33.0134L74.0288 34.0762L59.3653 23.5247L60.1301 22.4619ZM75.0658 33.5448V34.243H73.7565V33.5448H75.0658ZM74.7935 34.7744L60.1301 45.3259L59.3653 44.2631L74.0288 33.7117L74.7935 34.7744Z" fill="#F2D469"/>
</g>
<g filter="url(#filter2_d_217_220)">
<g filter="url(#filter3_d_217_220)">
<path fill-rule="evenodd" clip-rule="evenodd" d="M47.891 19.3794C48.0377 19.3866 48.249 19.4188 48.3564 19.451C48.4638 19.4832 48.6499 19.5584 48.7681 19.6157C48.9006 19.6837 49.0867 19.8269 49.255 19.9988C49.4376 20.1814 49.5629 20.346 49.6416 20.5036C49.7025 20.6325 49.7777 20.8258 49.8063 20.9332C49.835 21.0406 49.86 21.2733 49.86 21.4523C49.86 21.6313 49.835 21.8712 49.8028 21.9893C49.7741 22.1075 49.6882 22.3151 49.6166 22.4547C49.5414 22.5908 49.3875 22.7984 49.2693 22.9202C49.2013 22.9881 49.1037 23.0704 48.9614 23.1702C48.7245 23.3365 48.5676 23.599 48.5676 23.8885V37.9439C48.5676 38.3959 48.934 38.7622 49.3859 38.7622H51.1796H62.7736H63.0707H53.1126C52.6608 38.7622 52.2944 38.396 52.2943 37.9442L52.291 26.5923C52.291 26.4182 52.2243 26.2508 52.1048 26.1244V26.1244C51.9795 25.9955 51.8864 25.8523 51.8327 25.7127C51.7718 25.5551 51.7503 25.4263 51.7503 25.2293C51.7503 25.0468 51.7718 24.8964 51.8219 24.7639C51.8685 24.6422 51.9687 24.4847 52.0869 24.3558C52.2086 24.2197 52.3554 24.1088 52.4914 24.0407C52.6382 23.9656 52.7814 23.9262 52.9389 23.9154C53.0678 23.9047 53.2612 23.9154 53.3686 23.9369C53.4867 23.9584 53.6586 24.0336 53.791 24.1195C53.9127 24.1983 54.0703 24.3379 54.1383 24.431C54.2063 24.5276 54.2958 24.7066 54.3352 24.8355C54.3746 24.9644 54.4068 25.1434 54.4068 25.2365C54.4068 25.3332 54.3782 25.5014 54.3424 25.6124C54.3066 25.727 54.2278 25.8917 54.1669 25.9812C54.1493 26.0071 54.129 26.0348 54.1054 26.0645C53.9661 26.2402 53.8662 26.4482 53.8663 26.6724L53.8698 37.187H63.8277C64.2796 37.187 64.646 37.5534 64.646 38.0053V38.4553C64.646 38.9073 64.2796 39.2737 63.8277 39.2737H53.8698H47.2107H41.6043H31.7395C31.2875 39.2737 30.9211 38.9073 30.9211 38.4553V38.0053C30.9211 37.5534 31.2875 37.187 31.7395 37.187H41.6973L41.7009 26.453C41.7009 26.369 41.6659 26.2888 41.6043 26.2318V26.2318C41.5541 26.1817 41.461 26.0707 41.4002 25.9812C41.3393 25.8917 41.2606 25.727 41.2248 25.6124C41.189 25.5014 41.1603 25.3332 41.1603 25.2365C41.1603 25.1434 41.1925 24.9644 41.2319 24.8355C41.2713 24.7066 41.3608 24.5276 41.4288 24.431C41.4968 24.3379 41.6544 24.1983 41.7797 24.1195C41.9086 24.0336 42.0804 23.9584 42.1986 23.9369C42.306 23.9154 42.4993 23.9047 42.6282 23.9154C42.7857 23.9262 42.9289 23.9656 43.0757 24.0407C43.2117 24.1088 43.3585 24.2197 43.4802 24.3558C43.5984 24.4847 43.6986 24.6422 43.7452 24.7639C43.7953 24.8964 43.8168 25.0468 43.8168 25.2293C43.8168 25.4263 43.7953 25.5551 43.7344 25.7127C43.6964 25.8116 43.6385 25.9124 43.4972 26.0787C43.3608 26.2391 43.2761 26.4388 43.2761 26.6494L43.2728 37.9442C43.2727 38.396 42.9064 38.7622 42.4545 38.7622H32.4964H45.9505V38.7622C46.3974 38.7622 46.7617 38.4037 46.7688 37.9569L46.995 23.7038C46.9978 23.5292 46.9065 23.3667 46.7561 23.2782V23.2782C46.6236 23.1994 46.4159 23.0383 46.2978 22.9202C46.1797 22.7984 46.0257 22.5908 45.9505 22.4547C45.8789 22.3151 45.793 22.1075 45.7644 21.9893C45.7321 21.8712 45.7071 21.6313 45.7071 21.4523C45.7071 21.2733 45.7321 21.0406 45.7608 20.9332C45.7894 20.8258 45.8646 20.6325 45.9255 20.5036C46.0042 20.346 46.1295 20.1814 46.3121 19.9988C46.4804 19.8305 46.6666 19.6837 46.799 19.6157C46.9172 19.5584 47.1033 19.4832 47.2107 19.4546C47.3181 19.4224 47.4578 19.3901 47.515 19.3794C47.5723 19.3722 47.7442 19.3722 47.891 19.3794ZM38.2962 26.8941C38.4609 26.9084 38.6041 26.9478 38.7795 27.0337C38.9371 27.1089 39.0838 27.2127 39.1698 27.3094C39.2449 27.3953 39.3488 27.5564 39.4025 27.6638C39.4848 27.8357 39.4956 27.9073 39.4956 28.2188C39.4956 28.5445 39.4848 28.5982 39.3882 28.7916C39.3538 28.8623 39.299 28.9498 39.209 29.0593C39.0698 29.2286 38.9764 29.4341 38.9764 29.6533V34.507C38.9764 34.9589 38.6101 35.3253 38.1581 35.3253H33.7443C33.2924 35.3253 32.926 34.9589 32.926 34.507V31.9909C32.926 31.845 32.8681 31.7051 32.7649 31.602V31.602C32.6754 31.5125 32.5608 31.3442 32.5036 31.2261C32.4212 31.0399 32.4069 30.9647 32.4069 30.6711C32.4069 30.3704 32.4176 30.306 32.5071 30.1162C32.568 29.9945 32.6897 29.8226 32.7936 29.7224C32.9117 29.6078 33.0585 29.5076 33.1945 29.4539C33.3664 29.3859 33.4738 29.368 33.7315 29.368C34.0036 29.3644 34.0824 29.3787 34.2507 29.4575C34.3581 29.5112 34.5263 29.6222 34.623 29.7081C34.7304 29.8083 34.8342 29.9515 34.9058 30.0983C34.9882 30.2702 35.0204 30.3991 35.0311 30.5816C35.0419 30.7535 35.0276 30.9003 34.9846 31.0471C34.9488 31.1652 34.8843 31.3191 34.8414 31.3872C34.8201 31.4183 34.7891 31.4591 34.7425 31.5128C34.5969 31.6806 34.5013 31.8886 34.5013 32.1108V32.9317C34.5013 33.3837 34.8676 33.7501 35.3196 33.7501H36.5829C37.0348 33.7501 37.4012 33.3837 37.4012 32.9317V29.4498C37.4012 29.3496 37.3597 29.2539 37.2866 29.1854V29.1854C37.2258 29.1245 37.1398 29.0279 37.0933 28.9706C37.0503 28.9097 36.9787 28.7629 36.9393 28.6376C36.8964 28.5159 36.8642 28.3297 36.8642 28.2259C36.8642 28.1257 36.8964 27.9359 36.9358 27.807C36.9751 27.6782 37.0575 27.5099 37.1219 27.4275C37.1864 27.3488 37.2902 27.2414 37.3475 27.1913C37.4048 27.1411 37.5122 27.0731 37.5802 27.0373C37.6482 27.0015 37.7878 26.9514 37.8845 26.9227C37.9883 26.8977 38.1602 26.8869 38.2962 26.8941ZM57.3532 26.8798C57.407 26.8762 57.5358 26.8941 57.6397 26.9156C57.7399 26.9371 57.8903 26.9908 57.969 27.0301C58.0478 27.0695 58.1588 27.1411 58.2196 27.1913C58.2805 27.2414 58.3807 27.3488 58.4452 27.4275C58.5096 27.5099 58.592 27.6782 58.6314 27.807C58.6707 27.9359 58.703 28.1257 58.703 28.2259C58.703 28.3297 58.6707 28.5159 58.6278 28.6376C58.5884 28.7629 58.5168 28.9097 58.4738 28.9706C58.458 28.9901 58.4376 29.0141 58.4106 29.044C58.2614 29.2096 58.1659 29.4188 58.1659 29.6418V32.9317C58.1659 33.3837 58.5323 33.7501 58.9843 33.7501H60.2475C60.6995 33.7501 61.0658 33.3837 61.0658 32.9317V31.9428C61.0658 31.8279 61.0194 31.7179 60.937 31.6378V31.6378C60.8654 31.5698 60.7723 31.4552 60.7257 31.3872C60.6828 31.3191 60.6183 31.1652 60.5825 31.0471C60.5396 30.9003 60.5252 30.7535 60.536 30.5816C60.5467 30.3991 60.5789 30.2702 60.6613 30.0983C60.7329 29.9515 60.8367 29.8083 60.9441 29.7081C61.0408 29.6222 61.209 29.5112 61.3165 29.4575C61.4847 29.3787 61.5635 29.3644 61.8356 29.368C62.0933 29.368 62.2007 29.3859 62.3726 29.4539C62.5086 29.5076 62.6554 29.6078 62.7736 29.7224C62.8774 29.8226 62.9991 29.9945 63.06 30.1162C63.1495 30.306 63.1602 30.3704 63.1602 30.6711C63.1602 30.9647 63.1459 31.0399 63.0636 31.2261C63.0278 31.2998 62.9698 31.393 62.8703 31.5135C62.7322 31.681 62.6411 31.885 62.6411 32.102V34.507C62.6411 34.9589 62.2747 35.3253 61.8228 35.3253H57.409C56.9571 35.3253 56.5907 34.9589 56.5907 34.507V29.5284C56.5907 29.389 56.5353 29.2553 56.4367 29.1567V29.1567C56.3508 29.0744 56.2362 28.9097 56.179 28.7916C56.0823 28.5982 56.0716 28.5445 56.0716 28.2188C56.0716 27.9073 56.0823 27.8357 56.1646 27.6638C56.2183 27.5564 56.315 27.4025 56.383 27.3237C56.4511 27.245 56.6014 27.1304 56.7196 27.066C56.8341 27.0015 57.0024 26.9335 57.0919 26.9156C57.1814 26.8977 57.296 26.8834 57.3532 26.8798Z" fill="#F2D469"/>
<path d="M53.8698 37.187L53.8663 26.6724C53.8662 26.4482 53.9661 26.2402 54.1054 26.0645C54.129 26.0348 54.1493 26.0071 54.1669 25.9812C54.2278 25.8917 54.3066 25.727 54.3424 25.6124C54.3782 25.5014 54.4068 25.3332 54.4068 25.2365C54.4068 25.1434 54.3746 24.9644 54.3352 24.8355C54.2958 24.7066 54.2063 24.5276 54.1383 24.431C54.0703 24.3379 53.9127 24.1983 53.791 24.1195C53.6586 24.0336 53.4867 23.9584 53.3686 23.9369C53.2612 23.9154 53.0678 23.9047 52.9389 23.9154C52.7814 23.9262 52.6382 23.9656 52.4914 24.0407C52.3554 24.1088 52.2086 24.2197 52.0869 24.3558C51.9687 24.4847 51.8685 24.6422 51.8219 24.7639C51.7718 24.8964 51.7503 25.0468 51.7503 25.2293C51.7503 25.4263 51.7718 25.5551 51.8327 25.7127C51.8864 25.8523 51.9795 25.9955 52.1048 26.1244V26.1244C52.2243 26.2508 52.291 26.4182 52.291 26.5923L52.2943 37.9442C52.2944 38.396 52.6608 38.7622 53.1126 38.7622H63.0707H62.7736H51.1796M53.8698 37.187H63.8277C64.2796 37.187 64.646 37.5534 64.646 38.0053V38.4553C64.646 38.9073 64.2796 39.2737 63.8277 39.2737H53.8698M53.8698 37.187H41.6973M53.8698 37.187V39.2737M41.6973 37.187H31.7395C31.2875 37.187 30.9211 37.5534 30.9211 38.0053V38.4553C30.9211 38.9073 31.2875 39.2737 31.7395 39.2737H41.6043M41.6973 37.187L41.7009 26.453C41.7009 26.369 41.6659 26.2888 41.6043 26.2318V26.2318C41.5541 26.1817 41.461 26.0707 41.4002 25.9812C41.3393 25.8917 41.2606 25.727 41.2248 25.6124C41.189 25.5014 41.1603 25.3332 41.1603 25.2365C41.1603 25.1434 41.1925 24.9644 41.2319 24.8355C41.2713 24.7066 41.3608 24.5276 41.4288 24.431C41.4968 24.3379 41.6544 24.1983 41.7797 24.1195C41.9086 24.0336 42.0804 23.9584 42.1986 23.9369C42.306 23.9154 42.4993 23.9047 42.6282 23.9154C42.7857 23.9262 42.9289 23.9656 43.0757 24.0407C43.2117 24.1088 43.3585 24.2197 43.4802 24.3558C43.5984 24.4847 43.6986 24.6422 43.7452 24.7639C43.7953 24.8964 43.8168 25.0468 43.8168 25.2293C43.8168 25.4263 43.7953 25.5551 43.7344 25.7127C43.6964 25.8116 43.6385 25.9124 43.4972 26.0787C43.3608 26.2391 43.2761 26.4388 43.2761 26.6494L43.2728 37.9442C43.2727 38.396 42.9064 38.7622 42.4545 38.7622H32.4964H45.9505M41.6973 37.187L41.6043 39.2737M45.9505 38.7622V38.7622C46.3974 38.7622 46.7617 38.4037 46.7688 37.9569L46.995 23.7038C46.9978 23.5292 46.9065 23.3667 46.7561 23.2782V23.2782C46.6236 23.1994 46.4159 23.0383 46.2978 22.9202C46.1797 22.7984 46.0257 22.5908 45.9505 22.4547C45.8789 22.3151 45.793 22.1075 45.7644 21.9893C45.7321 21.8712 45.7071 21.6313 45.7071 21.4523C45.7071 21.2733 45.7321 21.0406 45.7608 20.9332C45.7894 20.8258 45.8646 20.6325 45.9255 20.5036C46.0042 20.346 46.1295 20.1814 46.3121 19.9988C46.4804 19.8305 46.6666 19.6837 46.799 19.6157C46.9172 19.5584 47.1033 19.4832 47.2107 19.4546C47.3181 19.4224 47.4578 19.3901 47.515 19.3794C47.5723 19.3722 47.7442 19.3722 47.891 19.3794C48.0377 19.3866 48.249 19.4188 48.3564 19.451C48.4638 19.4832 48.6499 19.5584 48.7681 19.6157C48.9006 19.6837 49.0867 19.8269 49.255 19.9988C49.4376 20.1814 49.5629 20.346 49.6416 20.5036C49.7025 20.6325 49.7777 20.8258 49.8063 20.9332C49.835 21.0406 49.86 21.2733 49.86 21.4523C49.86 21.6313 49.835 21.8712 49.8028 21.9893C49.7741 22.1075 49.6882 22.3151 49.6166 22.4547C49.5414 22.5908 49.3875 22.7984 49.2693 22.9202C49.2013 22.9881 49.1037 23.0704 48.9614 23.1702C48.7245 23.3365 48.5676 23.599 48.5676 23.8885V37.9439C48.5676 38.3959 48.934 38.7622 49.3859 38.7622H51.1796M45.9505 38.7622H51.1796M53.8698 39.2737H47.2107H41.6043M53.8698 39.2737H41.6043M38.2962 26.8941C38.4609 26.9084 38.6041 26.9478 38.7795 27.0337C38.9371 27.1089 39.0838 27.2127 39.1698 27.3094C39.2449 27.3953 39.3488 27.5564 39.4025 27.6638C39.4848 27.8357 39.4956 27.9073 39.4956 28.2188C39.4956 28.5445 39.4848 28.5982 39.3882 28.7916C39.3538 28.8623 39.299 28.9498 39.209 29.0593C39.0698 29.2286 38.9764 29.4341 38.9764 29.6533V34.507C38.9764 34.9589 38.6101 35.3253 38.1581 35.3253H33.7443C33.2924 35.3253 32.926 34.9589 32.926 34.507V31.9909C32.926 31.845 32.8681 31.7051 32.7649 31.602V31.602C32.6754 31.5125 32.5608 31.3442 32.5036 31.2261C32.4212 31.0399 32.4069 30.9647 32.4069 30.6711C32.4069 30.3704 32.4176 30.306 32.5071 30.1162C32.568 29.9945 32.6897 29.8226 32.7936 29.7224C32.9117 29.6078 33.0585 29.5076 33.1945 29.4539C33.3664 29.3859 33.4738 29.368 33.7315 29.368C34.0036 29.3644 34.0824 29.3787 34.2507 29.4575C34.3581 29.5112 34.5263 29.6222 34.623 29.7081C34.7304 29.8083 34.8342 29.9515 34.9058 30.0983C34.9882 30.2702 35.0204 30.3991 35.0311 30.5816C35.0419 30.7535 35.0276 30.9003 34.9846 31.0471C34.9488 31.1652 34.8843 31.3191 34.8414 31.3872C34.8201 31.4183 34.7891 31.4591 34.7425 31.5128C34.5969 31.6806 34.5013 31.8886 34.5013 32.1108V32.9317C34.5013 33.3837 34.8676 33.7501 35.3196 33.7501H36.5829C37.0348 33.7501 37.4012 33.3837 37.4012 32.9317V29.4498C37.4012 29.3496 37.3597 29.2539 37.2866 29.1854V29.1854C37.2258 29.1245 37.1398 29.0279 37.0933 28.9706C37.0503 28.9097 36.9787 28.7629 36.9393 28.6376C36.8964 28.5159 36.8642 28.3297 36.8642 28.2259C36.8642 28.1257 36.8964 27.9359 36.9358 27.807C36.9751 27.6782 37.0575 27.5099 37.1219 27.4275C37.1864 27.3488 37.2902 27.2414 37.3475 27.1913C37.4048 27.1411 37.5122 27.0731 37.5802 27.0373C37.6482 27.0015 37.7878 26.9514 37.8845 26.9227C37.9883 26.8977 38.1602 26.8869 38.2962 26.8941ZM57.3532 26.8798C57.407 26.8762 57.5358 26.8941 57.6397 26.9156C57.7399 26.9371 57.8903 26.9908 57.969 27.0301C58.0478 27.0695 58.1588 27.1411 58.2196 27.1913C58.2805 27.2414 58.3807 27.3488 58.4452 27.4275C58.5096 27.5099 58.592 27.6782 58.6314 27.807C58.6707 27.9359 58.703 28.1257 58.703 28.2259C58.703 28.3297 58.6707 28.5159 58.6278 28.6376C58.5884 28.7629 58.5168 28.9097 58.4738 28.9706C58.458 28.9901 58.4376 29.0141 58.4106 29.044C58.2614 29.2096 58.1659 29.4188 58.1659 29.6418V32.9317C58.1659 33.3837 58.5323 33.7501 58.9843 33.7501H60.2475C60.6995 33.7501 61.0658 33.3837 61.0658 32.9317V31.9428C61.0658 31.8279 61.0194 31.7179 60.937 31.6378V31.6378C60.8654 31.5698 60.7723 31.4552 60.7257 31.3872C60.6828 31.3191 60.6183 31.1652 60.5825 31.0471C60.5396 30.9003 60.5252 30.7535 60.536 30.5816C60.5467 30.3991 60.5789 30.2702 60.6613 30.0983C60.7329 29.9515 60.8367 29.8083 60.9441 29.7081C61.0408 29.6222 61.209 29.5112 61.3165 29.4575C61.4847 29.3787 61.5635 29.3644 61.8356 29.368C62.0933 29.368 62.2007 29.3859 62.3726 29.4539C62.5086 29.5076 62.6554 29.6078 62.7736 29.7224C62.8774 29.8226 62.9991 29.9945 63.06 30.1162C63.1495 30.306 63.1602 30.3704 63.1602 30.6711C63.1602 30.9647 63.1459 31.0399 63.0636 31.2261C63.0278 31.2998 62.9698 31.393 62.8703 31.5135C62.7322 31.681 62.6411 31.885 62.6411 32.102V34.507C62.6411 34.9589 62.2747 35.3253 61.8228 35.3253H57.409C56.9571 35.3253 56.5907 34.9589 56.5907 34.507V29.5284C56.5907 29.389 56.5353 29.2553 56.4367 29.1567V29.1567C56.3508 29.0744 56.2362 28.9097 56.179 28.7916C56.0823 28.5982 56.0716 28.5445 56.0716 28.2188C56.0716 27.9073 56.0823 27.8357 56.1646 27.6638C56.2183 27.5564 56.315 27.4025 56.383 27.3237C56.4511 27.245 56.6014 27.1304 56.7196 27.066C56.8341 27.0015 57.0024 26.9335 57.0919 26.9156C57.1814 26.8977 57.296 26.8834 57.3532 26.8798Z" stroke="#F2D469" stroke-width="0.0547675" stroke-linejoin="round"/>
<g filter="url(#filter4_f_217_220)">
<path d="M48.1187 20.2555C48.022 20.2269 47.8609 20.2018 47.7607 20.2054C47.664 20.2054 47.51 20.2304 47.4205 20.2555C47.331 20.2841 47.1807 20.3701 47.0804 20.4452C46.9515 20.5419 46.8656 20.6493 46.7761 20.8247C46.6687 21.036 46.6508 21.1076 46.6508 21.3081C46.6508 21.4369 46.6795 21.6231 46.7117 21.7233C46.7475 21.82 46.8441 21.9811 46.9265 22.0778C47.0196 22.178 47.1663 22.2926 47.2952 22.357C47.4921 22.4537 47.5351 22.4609 47.8144 22.4501C48.0685 22.4394 48.1509 22.4179 48.312 22.3284C48.4194 22.2711 48.5662 22.153 48.6449 22.0635C48.7201 21.974 48.8096 21.82 48.8454 21.7233C48.8777 21.6231 48.9063 21.4369 48.9063 21.3081C48.9063 21.1076 48.8884 21.036 48.781 20.8247C48.6915 20.6493 48.6056 20.5419 48.4767 20.4452C48.38 20.3701 48.2189 20.2841 48.1187 20.2555Z" fill="#FFFDED"/>
<path d="M42.489 24.498C42.4883 24.498 42.4877 24.498 42.4871 24.498H42.4907C42.4901 24.498 42.4895 24.498 42.489 24.498C42.5642 24.4984 42.6774 24.5233 42.7413 24.5552C42.8022 24.5875 42.8917 24.6483 42.9382 24.6913C42.9848 24.7307 43.042 24.8381 43.0707 24.9276C43.1029 25.0386 43.1101 25.1316 43.085 25.2319C43.0707 25.3106 43.0277 25.4145 42.9919 25.461C42.9561 25.5075 42.8881 25.5756 42.838 25.615C42.7878 25.6543 42.6697 25.6937 42.5695 25.7045C42.4298 25.7224 42.3547 25.708 42.2293 25.6508C42.1363 25.6042 42.0289 25.5183 41.9787 25.4395C41.9107 25.3393 41.8892 25.2641 41.8892 25.103C41.8892 24.9276 41.9036 24.8774 42.0002 24.7593C42.0611 24.6841 42.1649 24.5946 42.2329 24.5624C42.3004 24.5269 42.4138 24.4984 42.489 24.498Z" fill="#FFFDED"/>
<path d="M53.3206 24.5624C53.2526 24.5266 53.1344 24.498 53.0557 24.498C52.9769 24.5015 52.8552 24.5338 52.7836 24.5731C52.712 24.6125 52.6081 24.702 52.558 24.7772C52.4864 24.8774 52.4614 24.9562 52.4578 25.0887C52.4578 25.1853 52.4793 25.3142 52.5115 25.3751C52.5401 25.4324 52.6046 25.5183 52.6511 25.5613C52.6941 25.6042 52.7764 25.6543 52.8337 25.6758C52.8874 25.6973 52.9912 25.7152 53.0664 25.7152C53.138 25.7152 53.2633 25.683 53.3421 25.6436C53.4208 25.6042 53.5247 25.5147 53.5748 25.4395C53.6428 25.3393 53.6643 25.2641 53.6643 25.103C53.6643 24.9276 53.65 24.8774 53.5533 24.7593C53.4924 24.6841 53.3886 24.5946 53.3206 24.5624Z" fill="#FFFDED"/>
<path d="M38.3342 27.5053C38.3025 27.4977 38.2701 27.4902 38.242 27.484C38.1893 27.4723 38.1357 27.4751 38.084 27.4903C38.0537 27.4992 38.0182 27.5105 37.9833 27.5232C37.9046 27.5518 37.8043 27.6127 37.7578 27.6592C37.7148 27.7022 37.6539 27.7917 37.6253 27.8525C37.5967 27.917 37.5716 28.028 37.5716 28.096C37.5716 28.164 37.6038 28.2857 37.6432 28.3645C37.6826 28.4433 37.7578 28.5399 37.815 28.5829C37.8688 28.6223 37.9726 28.6688 38.0478 28.6903C38.1337 28.7118 38.2303 28.7082 38.3234 28.6867C38.4022 28.6688 38.5168 28.6079 38.5776 28.5507C38.6421 28.497 38.7137 28.411 38.7387 28.3538C38.7674 28.3001 38.7888 28.1855 38.7888 28.096C38.7888 28.0065 38.7674 27.8919 38.7387 27.8346C38.7137 27.7809 38.6421 27.695 38.5776 27.6377C38.5168 27.584 38.4058 27.5267 38.3342 27.5053Z" fill="#FFFDED"/>
<path d="M57.6669 27.5625C57.6096 27.5339 57.5093 27.5017 57.4413 27.4909C57.3661 27.4802 57.2587 27.4909 57.1728 27.5232C57.0941 27.5518 56.9902 27.6127 56.9473 27.6592C56.9007 27.7022 56.8399 27.7809 56.8112 27.8346C56.7826 27.8919 56.7611 28.0065 56.7611 28.096C56.7611 28.1855 56.7826 28.3001 56.8112 28.3538C56.8363 28.411 56.9079 28.497 56.9723 28.5507C57.0332 28.6079 57.1442 28.6652 57.2194 28.6867C57.3017 28.7082 57.4055 28.7082 57.495 28.6867C57.5738 28.6688 57.6776 28.6223 57.7277 28.5865C57.7779 28.5507 57.853 28.4576 57.8996 28.3788C57.9604 28.2714 57.9783 28.1962 57.9712 28.0566C57.964 27.9277 57.9318 27.8382 57.8638 27.7451C57.8065 27.6735 57.7206 27.5912 57.6669 27.5625Z" fill="#FFFDED"/>
<path d="M33.9091 29.9791C33.8554 29.9577 33.7588 29.9397 33.6943 29.9397C33.6335 29.9433 33.5225 29.9612 33.4544 29.9863C33.3864 30.0114 33.2969 30.0794 33.2504 30.1367C33.2074 30.1975 33.1537 30.287 33.1358 30.3407C33.1143 30.398 33.0964 30.4983 33.0964 30.5663C33.0964 30.6343 33.1251 30.7524 33.1573 30.824C33.1931 30.8956 33.2719 30.9923 33.3291 31.0353C33.4186 31.1069 33.4795 31.1176 33.7051 31.1176C33.9306 31.1176 33.9915 31.1069 34.081 31.0353C34.1383 30.9923 34.217 30.8956 34.2492 30.824C34.285 30.7524 34.3137 30.6343 34.3137 30.5663C34.3137 30.4983 34.2922 30.3873 34.2636 30.3228C34.2385 30.262 34.1705 30.1653 34.1132 30.1116C34.0559 30.0579 33.9664 29.997 33.9091 29.9791Z" fill="#FFFDED"/>
<path d="M62.049 29.9791C61.9953 29.9577 61.8986 29.9397 61.8341 29.9397C61.7733 29.9433 61.6623 29.9612 61.5943 29.9863C61.5263 30.0114 61.4368 30.0794 61.3902 30.1367C61.3472 30.1975 61.2935 30.287 61.2756 30.3407C61.2542 30.398 61.2363 30.4983 61.2363 30.5663C61.2363 30.6343 61.2649 30.7524 61.2971 30.824C61.3329 30.8956 61.4081 30.9923 61.469 31.0353C61.5585 31.1069 61.6193 31.1176 61.8449 31.1176C62.0704 31.1176 62.1313 31.1069 62.2208 31.0353C62.2817 30.9923 62.3568 30.8956 62.3891 30.824C62.4249 30.7524 62.4535 30.6343 62.4535 30.5663C62.4535 30.4983 62.432 30.3873 62.4034 30.3228C62.3783 30.262 62.3103 30.1653 62.253 30.1116C62.1957 30.0579 62.1062 29.997 62.049 29.9791Z" fill="#FFFDED"/>
<path d="M47.7607 20.2054C47.8609 20.2018 48.022 20.2269 48.1187 20.2555C48.2189 20.2841 48.38 20.3701 48.4767 20.4452C48.6056 20.5419 48.6915 20.6493 48.781 20.8247C48.8884 21.036 48.9063 21.1076 48.9063 21.3081C48.9063 21.4369 48.8777 21.6231 48.8454 21.7233C48.8096 21.82 48.7201 21.974 48.6449 22.0635C48.5662 22.153 48.4194 22.2711 48.312 22.3284C48.1509 22.4179 48.0685 22.4394 47.8144 22.4501C47.5351 22.4609 47.4921 22.4537 47.2952 22.357C47.1663 22.2926 47.0196 22.178 46.9265 22.0778C46.8441 21.9811 46.7475 21.82 46.7117 21.7233C46.6795 21.6231 46.6508 21.4369 46.6508 21.3081C46.6508 21.1076 46.6687 21.036 46.7761 20.8247C46.8656 20.6493 46.9515 20.5419 47.0804 20.4452C47.1807 20.3701 47.331 20.2841 47.4205 20.2555C47.51 20.2304 47.664 20.2054 47.7607 20.2054ZM42.4871 24.498C42.5623 24.498 42.6769 24.523 42.7413 24.5552C42.8022 24.5875 42.8917 24.6483 42.9382 24.6913C42.9848 24.7307 43.042 24.8381 43.0707 24.9276C43.1029 25.0386 43.1101 25.1316 43.085 25.2319C43.0707 25.3106 43.0277 25.4145 42.9919 25.461C42.9561 25.5075 42.8881 25.5756 42.838 25.615C42.7878 25.6543 42.6697 25.6937 42.5695 25.7045C42.4298 25.7224 42.3547 25.708 42.2293 25.6508C42.1363 25.6042 42.0289 25.5183 41.9787 25.4395C41.9107 25.3393 41.8892 25.2641 41.8892 25.103C41.8892 24.9276 41.9036 24.8774 42.0002 24.7593C42.0611 24.6841 42.1649 24.5946 42.2329 24.5624C42.301 24.5266 42.4155 24.498 42.4907 24.498H42.4871ZM53.0557 24.498C53.1344 24.498 53.2526 24.5266 53.3206 24.5624C53.3886 24.5946 53.4924 24.6841 53.5533 24.7593C53.65 24.8774 53.6643 24.9276 53.6643 25.103C53.6643 25.2641 53.6428 25.3393 53.5748 25.4395C53.5247 25.5147 53.4208 25.6042 53.3421 25.6436C53.2633 25.683 53.138 25.7152 53.0664 25.7152C52.9912 25.7152 52.8874 25.6973 52.8337 25.6758C52.7764 25.6543 52.6941 25.6042 52.6511 25.5613C52.6046 25.5183 52.5401 25.4324 52.5115 25.3751C52.4793 25.3142 52.4578 25.1853 52.4578 25.0887C52.4614 24.9562 52.4864 24.8774 52.558 24.7772C52.6081 24.702 52.712 24.6125 52.7836 24.5731C52.8552 24.5338 52.9769 24.5015 53.0557 24.498ZM38.3342 27.5053C38.3025 27.4977 38.2701 27.4902 38.242 27.484C38.1893 27.4723 38.1357 27.4751 38.084 27.4903C38.0537 27.4992 38.0182 27.5105 37.9833 27.5232C37.9046 27.5518 37.8043 27.6127 37.7578 27.6592C37.7148 27.7022 37.6539 27.7917 37.6253 27.8525C37.5967 27.917 37.5716 28.028 37.5716 28.096C37.5716 28.164 37.6038 28.2857 37.6432 28.3645C37.6826 28.4433 37.7578 28.5399 37.815 28.5829C37.8687 28.6223 37.9726 28.6688 38.0478 28.6903C38.1337 28.7118 38.2303 28.7082 38.3234 28.6867C38.4022 28.6688 38.5168 28.6079 38.5776 28.5507C38.6421 28.497 38.7137 28.411 38.7387 28.3538C38.7674 28.3001 38.7888 28.1855 38.7888 28.096C38.7888 28.0065 38.7674 27.8919 38.7387 27.8346C38.7137 27.7809 38.6421 27.695 38.5776 27.6377C38.5168 27.584 38.4058 27.5267 38.3342 27.5053ZM57.4413 27.4909C57.5093 27.5017 57.6096 27.5339 57.6669 27.5625C57.7206 27.5912 57.8065 27.6735 57.8638 27.7451C57.9318 27.8382 57.964 27.9277 57.9712 28.0566C57.9783 28.1962 57.9604 28.2714 57.8996 28.3788C57.853 28.4576 57.7779 28.5507 57.7277 28.5865C57.6776 28.6223 57.5738 28.6688 57.495 28.6867C57.4055 28.7082 57.3017 28.7082 57.2194 28.6867C57.1442 28.6652 57.0332 28.6079 56.9723 28.5507C56.9079 28.497 56.8363 28.411 56.8112 28.3538C56.7826 28.3001 56.7611 28.1855 56.7611 28.096C56.7611 28.0065 56.7826 27.8919 56.8112 27.8346C56.8399 27.7809 56.9007 27.7022 56.9473 27.6592C56.9902 27.6127 57.0941 27.5518 57.1728 27.5232C57.2587 27.4909 57.3661 27.4802 57.4413 27.4909ZM33.6943 29.9397C33.7588 29.9397 33.8554 29.9577 33.9091 29.9791C33.9664 29.997 34.0559 30.0579 34.1132 30.1116C34.1705 30.1653 34.2385 30.262 34.2636 30.3228C34.2922 30.3873 34.3137 30.4982 34.3137 30.5663C34.3137 30.6343 34.285 30.7524 34.2492 30.824C34.217 30.8956 34.1383 30.9923 34.081 31.0353C33.9915 31.1069 33.9306 31.1176 33.7051 31.1176C33.4795 31.1176 33.4186 31.1069 33.3291 31.0353C33.2719 30.9923 33.1931 30.8956 33.1573 30.824C33.1251 30.7524 33.0964 30.6343 33.0964 30.5663C33.0964 30.4982 33.1143 30.398 33.1358 30.3407C33.1537 30.287 33.2074 30.1975 33.2504 30.1367C33.2969 30.0794 33.3864 30.0114 33.4544 29.9863C33.5225 29.9612 33.6335 29.9433 33.6943 29.9397ZM61.8341 29.9397C61.8986 29.9397 61.9953 29.9577 62.049 29.9791C62.1062 29.997 62.1957 30.0579 62.253 30.1116C62.3103 30.1653 62.3783 30.262 62.4034 30.3228C62.432 30.3873 62.4535 30.4982 62.4535 30.5663C62.4535 30.6343 62.4249 30.7524 62.3891 30.824C62.3568 30.8956 62.2817 30.9923 62.2208 31.0353C62.1313 31.1069 62.0704 31.1176 61.8449 31.1176C61.6193 31.1176 61.5585 31.1069 61.469 31.0353C61.4081 30.9923 61.3329 30.8956 61.2971 30.824C61.2649 30.7524 61.2363 30.6343 61.2363 30.5663C61.2363 30.4982 61.2542 30.398 61.2756 30.3407C61.2935 30.287 61.3472 30.1975 61.3902 30.1367C61.4368 30.0794 61.5263 30.0114 61.5943 29.9863C61.6623 29.9612 61.7733 29.9433 61.8341 29.9397Z" stroke="#FFF278" stroke-width="0.0547675"/>
</g>
<path d="M53.0563 37.187H42.4182C41.9662 37.187 41.5999 37.5533 41.5999 38.0053V38.4144C41.5999 38.8664 41.9662 39.2328 42.4182 39.2328H53.0563C53.5082 39.2328 53.8746 38.8664 53.8746 38.4144V38.0053C53.8746 37.5533 53.5082 37.187 53.0563 37.187Z" fill="#F2D469"/>
</g>
</g>
<g filter="url(#filter5_dii_217_220)">
<path d="M36.1788 44.549L36.6702 43.8249L22.5239 33.6355L36.6702 23.4719L36.1788 22.7478L21.5153 33.2993V33.9975L36.1788 44.549Z" fill="#FFFDED"/>
<path d="M36.1788 44.549L35.7964 45.0804L36.7205 44.9166L36.1788 44.549ZM36.6702 43.8249L37.2119 44.1925L37.0528 43.2937L36.6702 43.8249ZM22.5239 33.6355L22.142 33.1038L22.1413 34.1667L22.5239 33.6355ZM36.6702 23.4719L37.0522 24.0036L37.2119 23.1043L36.6702 23.4719ZM36.1788 22.7478L36.7205 22.3802L35.7964 22.2164L36.1788 22.7478ZM21.5153 33.2993L21.133 32.7679L20.8607 33.2993H21.5153ZM21.5153 33.9975H20.8607L21.133 34.5289L21.5153 33.9975ZM36.7205 44.9166L37.2119 44.1925L36.1285 43.4573L35.6371 44.1814L36.7205 44.9166ZM37.0528 43.2937L22.9066 33.1043L22.1413 34.1667L36.2876 44.3561L37.0528 43.2937ZM22.9059 34.1671L37.0522 24.0036L36.2882 22.9402L22.142 33.1038L22.9059 34.1671ZM37.2119 23.1043L36.7205 22.3802L35.6371 23.1154L36.1285 23.8395L37.2119 23.1043ZM35.7964 22.2164L21.133 32.7679L21.8977 33.8306L36.5612 23.2792L35.7964 22.2164ZM20.8607 33.2993V33.9975H22.17V33.2993H20.8607ZM21.133 34.5289L35.7964 45.0804L36.5612 44.0176L21.8977 33.4661L21.133 34.5289Z" fill="#F2D469"/>
</g>
<defs>
<filter id="filter0_ddii_217_220" x="0.977251" y="9.8404" width="97.0455" height="62.0433" filterUnits="userSpaceOnUse" color-interpolation-filters="sRGB">
<feFlood flood-opacity="0" result="BackgroundImageFix"/>
<feColorMatrix in="SourceAlpha" type="matrix" values="0 0 0 0 0 0 0 0 0 0 0 0 0 0 0 0 0 0 127 0" result="hardAlpha"/>
<feOffset dx="0.417625" dy="-0.208812"/>
<feComposite in2="hardAlpha" operator="out"/>
<feColorMatrix type="matrix" values="0 0 0 0 1 0 0 0 0 1 0 0 0 0 1 0 0 0 1 0"/>
<feBlend mode="normal" in2="BackgroundImageFix" result="effect1_dropShadow_217_220"/>
<feColorMatrix in="SourceAlpha" type="matrix" values="0 0 0 0 0 0 0 0 0 0 0 0 0 0 0 0 0 0 127 0" result="hardAlpha"/>
<feOffset dy="0.835249"/>
<feGaussianBlur stdDeviation="0.417625"/>
<feComposite in2="hardAlpha" operator="out"/>
<feColorMatrix type="matrix" values="0 0 0 0 0 0 0 0 0 0 0 0 0 0 0 0 0 0 0.25 0"/>
<feBlend mode="normal" in2="effect1_dropShadow_217_220" result="effect2_dropShadow_217_220"/>
<feBlend mode="normal" in="SourceGraphic" in2="effect2_dropShadow_217_220" result="shape"/>
<feColorMatrix in="SourceAlpha" type="matrix" values="0 0 0 0 0 0 0 0 0 0 0 0 0 0 0 0 0 0 127 0" result="hardAlpha"/>
<feOffset dx="1.6705" dy="1.6705"/>
<feGaussianBlur stdDeviation="0.417625"/>
<feComposite in2="hardAlpha" operator="arithmetic" k2="-1" k3="1"/>
<feColorMatrix type="matrix" values="0 0 0 0 0 0 0 0 0 0 0 0 0 0 0 0 0 0 0.25 0"/>
<feBlend mode="normal" in2="shape" result="effect3_innerShadow_217_220"/>
<feColorMatrix in="SourceAlpha" type="matrix" values="0 0 0 0 0 0 0 0 0 0 0 0 0 0 0 0 0 0 127 0" result="hardAlpha"/>
<feOffset dx="-1.46169" dy="0.626437"/>
<feGaussianBlur stdDeviation="0.417625"/>
<feComposite in2="hardAlpha" operator="arithmetic" k2="-1" k3="1"/>
<feColorMatrix type="matrix" values="0 0 0 0 0 0 0 0 0 0 0 0 0 0 0 0 0 0 0.25 0"/>
<feBlend mode="normal" in2="effect3_innerShadow_217_220" result="effect4_innerShadow_217_220"/>
</filter>
<filter id="filter1_dii_217_220" x="58.6299" y="22.9933" width="16.1988" height="22.9469" filterUnits="userSpaceOnUse" color-interpolation-filters="sRGB">
<feFlood flood-opacity="0" result="BackgroundImageFix"/>
<feColorMatrix in="SourceAlpha" type="matrix" values="0 0 0 0 0 0 0 0 0 0 0 0 0 0 0 0 0 0 127 0" result="hardAlpha"/>
<feOffset dy="0.818316"/>
<feGaussianBlur stdDeviation="0.163663"/>
<feComposite in2="hardAlpha" operator="out"/>
<feColorMatrix type="matrix" values="0 0 0 0 0 0 0 0 0 0 0 0 0 0 0 0 0 0 0.25 0"/>
<feBlend mode="normal" in2="BackgroundImageFix" result="effect1_dropShadow_217_220"/>
<feBlend mode="normal" in="SourceGraphic" in2="effect1_dropShadow_217_220" result="shape"/>
<feColorMatrix in="SourceAlpha" type="matrix" values="0 0 0 0 0 0 0 0 0 0 0 0 0 0 0 0 0 0 127 0" result="hardAlpha"/>
<feOffset dx="0.417625" dy="0.835249"/>
<feGaussianBlur stdDeviation="0.417625"/>
<feComposite in2="hardAlpha" operator="arithmetic" k2="-1" k3="1"/>
<feColorMatrix type="matrix" values="0 0 0 0 0 0 0 0 0 0 0 0 0 0 0 0 0 0 0.25 0"/>
<feBlend mode="normal" in2="shape" result="effect2_innerShadow_217_220"/>
<feColorMatrix in="SourceAlpha" type="matrix" values="0 0 0 0 0 0 0 0 0 0 0 0 0 0 0 0 0 0 127 0" result="hardAlpha"/>
<feOffset dx="-0.626437" dy="0.835249"/>
<feGaussianBlur stdDeviation="0.417625"/>
<feComposite in2="hardAlpha" operator="arithmetic" k2="-1" k3="1"/>
<feColorMatrix type="matrix" values="0 0 0 0 0 0 0 0 0 0 0 0 0 0 0 0 0 0 0.25 0"/>
<feBlend mode="normal" in2="effect2_innerShadow_217_220" result="effect3_innerShadow_217_220"/>
</filter>
<filter id="filter2_d_217_220" x="30.5665" y="19.3466" width="34.4342" height="20.609" filterUnits="userSpaceOnUse" color-interpolation-filters="sRGB">
<feFlood flood-opacity="0" result="BackgroundImageFix"/>
<feColorMatrix in="SourceAlpha" type="matrix" values="0 0 0 0 0 0 0 0 0 0 0 0 0 0 0 0 0 0 127 0" result="hardAlpha"/>
<feOffset dy="0.327326"/>
<feGaussianBlur stdDeviation="0.163663"/>
<feComposite in2="hardAlpha" operator="out"/>
<feColorMatrix type="matrix" values="0 0 0 0 0.835294 0 0 0 0 0.607843 0 0 0 0 0.184314 0 0 0 0.15 0"/>
<feBlend mode="normal" in2="BackgroundImageFix" result="effect1_dropShadow_217_220"/>
<feBlend mode="normal" in="SourceGraphic" in2="effect1_dropShadow_217_220" result="shape"/>
</filter>
<filter id="filter3_d_217_220" x="30.7301" y="19.0193" width="35.0888" height="21.2637" filterUnits="userSpaceOnUse" color-interpolation-filters="sRGB">
<feFlood flood-opacity="0" result="BackgroundImageFix"/>
<feColorMatrix in="SourceAlpha" type="matrix" values="0 0 0 0 0 0 0 0 0 0 0 0 0 0 0 0 0 0 127 0" result="hardAlpha"/>
<feOffset dx="0.490989" dy="0.327326"/>
<feGaussianBlur stdDeviation="0.327326"/>
<feComposite in2="hardAlpha" operator="out"/>
<feColorMatrix type="matrix" values="0 0 0 0 0.835294 0 0 0 0 0.607843 0 0 0 0 0.184314 0 0 0 0.15 0"/>
<feBlend mode="normal" in2="BackgroundImageFix" result="effect1_dropShadow_217_220"/>
<feBlend mode="normal" in="SourceGraphic" in2="effect1_dropShadow_217_220" result="shape"/>
</filter>
<filter id="filter4_f_217_220" x="32.4963" y="19.6048" width="30.5575" height="12.113" filterUnits="userSpaceOnUse" color-interpolation-filters="sRGB">
<feFlood flood-opacity="0" result="BackgroundImageFix"/>
<feBlend mode="normal" in="SourceGraphic" in2="BackgroundImageFix" result="shape"/>
<feGaussianBlur stdDeviation="0.286411" result="effect1_foregroundBlur_217_220"/>
</filter>
<filter id="filter5_dii_217_220" x="20.8889" y="22.7478" width="16.1988" height="22.9469" filterUnits="userSpaceOnUse" color-interpolation-filters="sRGB">
<feFlood flood-opacity="0" result="BackgroundImageFix"/>
<feColorMatrix in="SourceAlpha" type="matrix" values="0 0 0 0 0 0 0 0 0 0 0 0 0 0 0 0 0 0 127 0" result="hardAlpha"/>
<feOffset dy="0.818316"/>
<feGaussianBlur stdDeviation="0.163663"/>
<feComposite in2="hardAlpha" operator="out"/>
<feColorMatrix type="matrix" values="0 0 0 0 0 0 0 0 0 0 0 0 0 0 0 0 0 0 0.25 0"/>
<feBlend mode="normal" in2="BackgroundImageFix" result="effect1_dropShadow_217_220"/>
<feBlend mode="normal" in="SourceGraphic" in2="effect1_dropShadow_217_220" result="shape"/>
<feColorMatrix in="SourceAlpha" type="matrix" values="0 0 0 0 0 0 0 0 0 0 0 0 0 0 0 0 0 0 127 0" result="hardAlpha"/>
<feOffset dx="0.417625" dy="0.835249"/>
<feGaussianBlur stdDeviation="0.417625"/>
<feComposite in2="hardAlpha" operator="arithmetic" k2="-1" k3="1"/>
<feColorMatrix type="matrix" values="0 0 0 0 0 0 0 0 0 0 0 0 0 0 0 0 0 0 0.25 0"/>
<feBlend mode="normal" in2="shape" result="effect2_innerShadow_217_220"/>
<feColorMatrix in="SourceAlpha" type="matrix" values="0 0 0 0 0 0 0 0 0 0 0 0 0 0 0 0 0 0 127 0" result="hardAlpha"/>
<feOffset dx="-0.626437" dy="0.835249"/>
<feGaussianBlur stdDeviation="0.417625"/>
<feComposite in2="hardAlpha" operator="arithmetic" k2="-1" k3="1"/>
<feColorMatrix type="matrix" values="0 0 0 0 0 0 0 0 0 0 0 0 0 0 0 0 0 0 0.25 0"/>
<feBlend mode="normal" in2="effect2_innerShadow_217_220" result="effect3_innerShadow_217_220"/>
</filter>
</defs>
</svg>
