<svg width="384" height="48" viewBox="0 0 384 48" fill="none" xmlns="http://www.w3.org/2000/svg">
<path d="M38.875 46.8125V6.625C38.875 5.09375 39.25 3.6875 40.0625 2.40625C40.8438 1.09375 41.8125 0.4375 42.9375 0.4375V0.1875H33.75V0.4375C36 0.4375 37.3438 2.5 37.8125 6.625V38.0625L8.6875 0.1875H0.21875V0.4375C2.9375 0.75 4.28125 2.6875 4.28125 6.28125V40.3438C4.28125 41.875 3.875 43.2812 3.09375 44.5938C2.3125 45.875 1.34375 46.5312 0.21875 46.5312V46.8125H9.40625V46.5312C7.15625 46.5312 5.8125 44.4688 5.34375 40.3438V4.53125L37.8125 46.8125H38.875Z" fill="#240060"/>
<path d="M83.6875 46.9688V46.7188C82.4375 46.7188 81.3438 46.2812 80.4375 45.375C79.5625 44.4688 79.0938 42.7188 79.0938 40.125L79.125 34.7188V28.6875C79.1875 28.1562 79.1875 27.625 79.1875 27.0938C79.1875 24.5312 78.6875 22.0312 77.6562 19.6562C77.0938 18.5625 76.375 17.5625 75.4688 16.6875C74.4375 15.6562 73.2812 14.8125 72.0312 14.2188C70.7812 13.625 69.5 13.1875 68.2188 12.9062C66.9062 12.625 65.5938 12.5 64.25 12.5C60.0938 12.5 56.5 13.7812 53.4688 16.3438C52.4062 17.2812 51.4062 18.6562 50.4375 20.4375L53.1562 23.1562C53.7812 20.9375 54.5 19.1875 55.2812 17.9375C56.625 16.0312 58.4688 14.75 60.8438 14.0312C61.9688 13.7188 63.0625 13.5625 64.1562 13.5625C65.4062 13.5625 66.6562 13.75 67.875 14.1875C71.0625 15.5 72.9062 17.875 73.375 21.2188C73.375 21.625 73.3125 21.9688 73.1875 22.2812C72.7812 23.3125 71.75 24.1562 70.125 24.7812C68.5 25.4062 66.3125 25.9062 63.625 26.2812C62.3125 26.5 60.8125 26.7188 59.1562 26.9375C57.6562 27.125 56.125 27.4062 54.5312 27.7812C52.9688 28.1875 51.4062 28.9062 49.8438 30C48.2188 31.2188 47.1562 32.875 46.625 34.9062C46.4375 35.7188 46.3438 36.5938 46.3438 37.5625C46.4062 39.8125 47.0938 41.7812 48.4688 43.4062C49.1562 44.1562 49.9375 44.7812 50.75 45.2812C52.4375 46.1875 54.125 46.7188 55.8125 46.8438C56.375 46.875 56.9375 46.9062 57.5 46.9062C59.9375 46.9062 62.5312 46.4688 65.2812 45.5625C68.9062 44.4062 71.7188 42.6562 73.7812 40.375C73.7812 42.9375 74 44.6562 74.4688 45.5938C74.9062 46.5 75.7812 46.9688 77.0938 46.9688H83.6875ZM61.7812 44.1562C60 44.1562 58.25 43.8438 56.5625 43.25C55.3125 42.7812 54.2812 42.1562 53.4688 41.4062C52.625 40.6875 52.0938 39.875 51.8438 39.0312C51.7188 38.5625 51.6562 38.0312 51.625 37.4375C51.625 36.9062 51.6562 36.4375 51.7188 36.0312C52.1562 33.2188 54.8438 30.875 59.7188 29.0625C61.0938 28.5625 62.875 28 65.0625 27.4062C66.5 27 67.5938 26.6875 68.2812 26.4688C69.7812 26.0625 71.1562 25.4062 72.4688 24.5312C72.9062 24.1875 73.2812 23.8125 73.5938 23.375L73.75 24.8438C73.7812 25.3125 73.8125 25.8125 73.8125 26.3438L73.7812 38.9375C73.4062 39.4062 73 39.8438 72.5625 40.25C69.4688 42.8438 65.875 44.1562 61.7812 44.1562Z" fill="#240060"/>
<path d="M97.8125 46.6875L98.8125 46.625V46.3438C97.5938 46.3438 96.5625 45.7188 95.7188 44.4375C94.8438 43.1562 94.3438 41.3438 94.25 39C94.25 38.8438 94.25 37.375 94.25 34.5312C94.2188 31.6875 94.2188 24.5625 94.2188 13.1562H104.125V12.0938H94.2188C94.1875 9.90625 94.1875 7.46875 94.1875 4.75L91.9688 7.875C89.75 10.6875 87 12.0938 83.7188 12.0938V13.1562H88.9375V38.4688C88.9688 41.9062 90.125 44.25 92.4062 45.4688C93.9062 46.2812 95.5312 46.6875 97.3438 46.6875H97.8125Z" fill="#240060"/>
<path d="M141.875 46.9688V46.7188C140.625 46.7188 139.531 46.2812 138.625 45.375C137.75 44.4688 137.281 42.7188 137.281 40.125L137.312 34.7188V28.6875C137.375 28.1562 137.375 27.625 137.375 27.0938C137.375 24.5312 136.875 22.0312 135.844 19.6562C135.281 18.5625 134.562 17.5625 133.656 16.6875C132.625 15.6562 131.469 14.8125 130.219 14.2188C128.969 13.625 127.688 13.1875 126.406 12.9062C125.094 12.625 123.781 12.5 122.438 12.5C118.281 12.5 114.688 13.7812 111.656 16.3438C110.594 17.2812 109.594 18.6562 108.625 20.4375L111.344 23.1562C111.969 20.9375 112.688 19.1875 113.469 17.9375C114.812 16.0312 116.656 14.75 119.031 14.0312C120.156 13.7188 121.25 13.5625 122.344 13.5625C123.594 13.5625 124.844 13.75 126.062 14.1875C129.25 15.5 131.094 17.875 131.562 21.2188C131.562 21.625 131.5 21.9688 131.375 22.2812C130.969 23.3125 129.938 24.1562 128.312 24.7812C126.688 25.4062 124.5 25.9062 121.812 26.2812C120.5 26.5 119 26.7188 117.344 26.9375C115.844 27.125 114.312 27.4062 112.719 27.7812C111.156 28.1875 109.594 28.9062 108.031 30C106.406 31.2188 105.344 32.875 104.812 34.9062C104.625 35.7188 104.531 36.5938 104.531 37.5625C104.594 39.8125 105.281 41.7812 106.656 43.4062C107.344 44.1562 108.125 44.7812 108.938 45.2812C110.625 46.1875 112.312 46.7188 114 46.8438C114.562 46.875 115.125 46.9062 115.688 46.9062C118.125 46.9062 120.719 46.4688 123.469 45.5625C127.094 44.4062 129.906 42.6562 131.969 40.375C131.969 42.9375 132.188 44.6562 132.656 45.5938C133.094 46.5 133.969 46.9688 135.281 46.9688H141.875ZM119.969 44.1562C118.188 44.1562 116.438 43.8438 114.75 43.25C113.5 42.7812 112.469 42.1562 111.656 41.4062C110.812 40.6875 110.281 39.875 110.031 39.0312C109.906 38.5625 109.844 38.0312 109.812 37.4375C109.812 36.9062 109.844 36.4375 109.906 36.0312C110.344 33.2188 113.031 30.875 117.906 29.0625C119.281 28.5625 121.062 28 123.25 27.4062C124.688 27 125.781 26.6875 126.469 26.4688C127.969 26.0625 129.344 25.4062 130.656 24.5312C131.094 24.1875 131.469 23.8125 131.781 23.375L131.938 24.8438C131.969 25.3125 132 25.8125 132 26.3438L131.969 38.9375C131.594 39.4062 131.188 39.8438 130.75 40.25C127.656 42.8438 124.062 44.1562 119.969 44.1562Z" fill="#240060"/>
<path d="M184.969 46.8125V46.5625C182.094 46.5625 180.594 44.5625 180.406 40.5938V27.0312L180.438 26.0938C180.438 24.4375 180.188 22.7812 179.719 21.1562C179 19.0938 177.844 17.3125 176.219 15.8438C173.938 13.9375 171.438 12.7812 168.75 12.4375C167.75 12.2812 166.75 12.1875 165.75 12.1875C162.781 12.1875 160.031 12.9062 157.531 14.2812C156.125 15.0312 154.906 16.0312 153.844 17.3125C153.844 15.2812 153.656 13.9375 153.25 13.2188C152.844 12.5312 151.938 12.1875 150.531 12.1875H143.969V12.4688C145.219 12.4688 146.281 12.9062 147.188 13.8125C148.094 14.7188 148.531 16.4375 148.531 19.0312V40.5938C148.344 44.5625 146.844 46.5625 143.969 46.5625V46.8125H158.406V46.5625C155.531 46.5625 154.031 44.5625 153.844 40.5938V19.6562C154 18.7188 154.406 17.875 155.031 17.125C156.75 15.3125 158.812 14.125 161.281 13.5938C162.312 13.3438 163.344 13.2188 164.375 13.2188C167.188 13.2188 169.531 14 171.438 15.5625C173.406 17.3438 174.562 19.5938 174.844 22.2812C175.062 24.0312 175.156 25.7812 175.156 27.5312L175.125 29.1562C175.094 29.875 175.094 33.6875 175.094 40.625C174.969 42.9062 174.469 44.4688 173.625 45.3125C172.781 46.1562 171.75 46.5625 170.531 46.5625V46.8125H184.969Z" fill="#240060"/>
<path d="M203.125 46.9688V46.7188C200.25 46.7188 198.75 44.7188 198.562 40.75V17.7812C198.562 15.7812 198.438 14.4062 198.125 13.6562C197.75 12.7812 196.781 12.3438 195.25 12.3438H188.688V12.625C189.938 12.625 191 13.0625 191.906 13.9688C192.812 14.875 193.25 16.5938 193.25 19.1875V40.75C193.062 44.7188 191.562 46.7188 188.688 46.7188V46.9688H203.125ZM195.219 7.5625C196.219 7.5625 197.062 7.21875 197.781 6.5C198.5 5.8125 198.844 4.9375 198.844 3.96875C198.844 2.96875 198.5 2.09375 197.781 1.40625C197.062 0.6875 196.219 0.34375 195.219 0.34375C194.219 0.34375 193.375 0.6875 192.688 1.40625C191.969 2.09375 191.625 2.96875 191.625 3.96875C191.625 4.9375 191.969 5.8125 192.688 6.5C193.375 7.21875 194.219 7.5625 195.219 7.5625Z" fill="#240060"/>
<path d="M261.375 46.625L264.062 40.125L263.812 40.0312C262.375 43.5312 258.75 45.375 252.969 45.5625H237.875C237.875 21.7812 237.875 9.40625 237.875 8.40625V6.21875C238.062 2.25 239.594 0.25 242.438 0.25V0H228.031V0.25C230.812 0.25 232.312 2.1875 232.562 6V40.5938C232.312 44.4375 230.812 46.3438 228.031 46.3438V46.625H261.375Z" fill="#240060"/>
<path d="M285.625 46.9375C288.594 46.9375 291.438 46.1875 294.094 44.6875C297.219 42.8125 299.531 39.9688 301.062 36.2188L301.125 36L300.094 35.8438C299.281 38.375 297.875 40.5312 295.906 42.3438C293.344 44.4688 290.375 45.5 287.031 45.5C285.688 45.5 284.344 45.3125 282.969 44.9375C279.375 43.75 276.625 41.6875 274.656 38.75C273.531 37.1562 272.688 35.4688 272.094 33.6875C276.438 33.4062 279.906 32.625 282.531 31.3438C285.156 30.0625 287.438 28.6562 289.344 27.125C291.156 25.6875 293.125 24.4688 295.25 23.4688C295.969 23.1875 296.688 22.9688 297.438 22.8438L301.562 22.125C299.719 17.9375 296.594 15.0625 292.188 13.5C289.594 12.5938 286.969 12.125 284.312 12.125C280.844 12.125 277.688 12.8438 274.844 14.25C273 15.1562 271.344 16.4375 269.938 18.0938C267.906 20.5 266.656 23.4375 266.188 26.9062C266.094 27.5938 266.062 28.6562 266.062 30.0938C266.125 32.3125 266.625 34.4375 267.562 36.4688C269.375 40.375 272.438 43.2188 276.75 45.0625C279.781 46.3125 282.719 46.9375 285.625 46.9375ZM271.781 32.625C271.312 30.8438 271.062 29.125 271.062 27.4062C271.062 24.8125 271.594 22.3438 272.656 19.9688C273.438 18.4375 274.531 17.125 275.938 16C278.375 14.125 281.219 13.2188 284.531 13.2188C286.938 13.2188 289.281 13.7812 291.531 14.9688C293.188 15.8438 294.469 17 295.406 18.4688C296.094 19.5625 296.438 20.7188 296.469 21.9062C293.562 22.9688 290.969 24.4375 288.719 26.2812C286.75 27.8125 284.5 29.2188 281.969 30.4375C279.406 31.6875 276 32.4062 271.781 32.625Z" fill="#240060"/>
<path d="M317.031 8.46875C317.031 8.78125 317.25 8.90625 317.469 8.90625C317.719 8.90625 318 8.75 318.094 8.53125C318.844 7.1875 319.906 6.5 321.281 6.5C323.75 6.5 324.781 8.90625 327.688 8.90625C330.688 8.90625 332.094 6.25 332.094 3.28125C332.094 3.03125 331.906 2.90625 331.688 2.90625C331.5 2.90625 331.25 3.03125 331.125 3.28125C330.531 4.625 329.375 5.28125 328.125 5.28125C325.781 5.28125 324.5 2.90625 321.812 2.90625C318.969 2.90625 317.031 5.5625 317.031 8.46875ZM343.5 46.9688V46.7188C342.25 46.7188 341.156 46.2812 340.25 45.375C339.375 44.4688 338.906 42.7188 338.906 40.125L338.938 34.7188V28.6875C339 28.1562 339 27.625 339 27.0938C339 24.5312 338.5 22.0312 337.469 19.6562C336.906 18.5625 336.188 17.5625 335.281 16.6875C334.25 15.6562 333.094 14.8125 331.844 14.2188C330.594 13.625 329.312 13.1875 328.031 12.9062C326.719 12.625 325.406 12.5 324.062 12.5C319.906 12.5 316.312 13.7812 313.281 16.3438C312.219 17.2812 311.219 18.6562 310.25 20.4375L312.969 23.1562C313.594 20.9375 314.312 19.1875 315.094 17.9375C316.438 16.0312 318.281 14.75 320.656 14.0312C321.781 13.7188 322.875 13.5625 323.969 13.5625C325.219 13.5625 326.469 13.75 327.688 14.1875C330.875 15.5 332.719 17.875 333.188 21.2188C333.188 21.625 333.125 21.9688 333 22.2812C332.594 23.3125 331.562 24.1562 329.938 24.7812C328.312 25.4062 326.125 25.9062 323.438 26.2812C322.125 26.5 320.625 26.7188 318.969 26.9375C317.469 27.125 315.938 27.4062 314.344 27.7812C312.781 28.1875 311.219 28.9062 309.656 30C308.031 31.2188 306.969 32.875 306.438 34.9062C306.25 35.7188 306.156 36.5938 306.156 37.5625C306.219 39.8125 306.906 41.7812 308.281 43.4062C308.969 44.1562 309.75 44.7812 310.562 45.2812C312.25 46.1875 313.938 46.7188 315.625 46.8438C316.188 46.875 316.75 46.9062 317.312 46.9062C319.75 46.9062 322.344 46.4688 325.094 45.5625C328.719 44.4062 331.531 42.6562 333.594 40.375C333.594 42.9375 333.812 44.6562 334.281 45.5938C334.719 46.5 335.594 46.9688 336.906 46.9688H343.5ZM321.594 44.1562C319.812 44.1562 318.062 43.8438 316.375 43.25C315.125 42.7812 314.094 42.1562 313.281 41.4062C312.438 40.6875 311.906 39.875 311.656 39.0312C311.531 38.5625 311.469 38.0312 311.438 37.4375C311.438 36.9062 311.469 36.4375 311.531 36.0312C311.969 33.2188 314.656 30.875 319.531 29.0625C320.906 28.5625 322.688 28 324.875 27.4062C326.312 27 327.406 26.6875 328.094 26.4688C329.594 26.0625 330.969 25.4062 332.281 24.5312C332.719 24.1875 333.094 23.8125 333.406 23.375L333.562 24.8438C333.594 25.3125 333.625 25.8125 333.625 26.3438L333.594 38.9375C333.219 39.4062 332.812 39.8438 332.375 40.25C329.281 42.8438 325.688 44.1562 321.594 44.1562Z" fill="#240060"/>
<path d="M364.812 47.0312C369.469 47.0312 373.625 45.5938 377.344 42.6875C379.25 41.1562 380.812 39.2812 381.969 37C383.094 34.7188 383.656 32.2812 383.688 29.6875C383.656 27.0938 383.062 24.6875 381.906 22.4062C380.719 20.1562 379.156 18.2812 377.219 16.7812C373.344 13.8438 369.031 12.375 364.25 12.375C359.719 12.375 355.531 13.8438 351.656 16.7812C349.75 18.2812 348.188 20.1562 346.969 22.4062C345.812 24.6875 345.219 27.0938 345.219 29.6875C345.219 32.2812 345.812 34.6875 346.969 36.9688C348.125 39.25 349.656 41.125 351.562 42.6562C353.469 44.1875 355.531 45.2812 357.688 46C359.875 46.6875 362.062 47.0312 364.25 47.0312H364.812ZM364.438 46.3438C362.25 46.3125 360.219 45.75 358.312 44.7188C356.438 43.6562 354.906 42.2812 353.75 40.5938C352.594 38.9062 351.75 37.125 351.25 35.2812C350.75 33.4062 350.5 31.5625 350.5 29.6875C350.5 27.8125 350.75 25.9375 351.219 24.0938C351.688 22.2188 352.5 20.4062 353.656 18.6875C354.844 16.9688 356.375 15.5938 358.281 14.5625C360.188 13.5625 362.25 13.0312 364.438 13C366.656 13.0312 368.719 13.5625 370.625 14.5625C372.531 15.5938 374.062 16.9688 375.219 18.6875C376.406 20.4062 377.219 22.2188 377.688 24.0625C378.156 25.9375 378.375 27.8125 378.375 29.6875C378.375 31.5625 378.125 33.4062 377.625 35.2812C377.125 37.125 376.281 38.9062 375.125 40.5938C373.969 42.2812 372.438 43.6562 370.562 44.6875C368.688 45.75 366.656 46.2812 364.438 46.3438Z" fill="#240060"/>
</svg>
