<svg width="20" height="20" viewBox="0 0 20 20" fill="none" xmlns="http://www.w3.org/2000/svg">
<path d="M15.2259 19.9626C14.8517 20.0047 14.5455 19.6947 14.5455 19.3182V19.3182C14.5455 18.9416 14.8526 18.643 15.2248 18.5859C16.0719 18.4561 16.8115 18.0753 17.4436 17.4436C18.0753 16.8115 18.4561 16.0719 18.5859 15.2248C18.643 14.8526 18.9416 14.5455 19.3182 14.5455V14.5455C19.6947 14.5455 20.0047 14.8517 19.9626 15.2259C19.825 16.45 19.3072 17.511 18.4091 18.4091C17.511 19.3072 16.45 19.825 15.2259 19.9626ZM0.681818 5.45455C0.30526 5.45455 -0.0047172 5.14825 0.0373541 4.77405C0.174969 3.55004 0.692821 2.489 1.59091 1.59091C2.489 0.692821 3.55004 0.174969 4.77405 0.0373542C5.14825 -0.00471718 5.45455 0.30526 5.45455 0.681818V0.681818C5.45455 1.05838 5.14737 1.35699 4.77516 1.41407C3.9281 1.54395 3.1885 1.92471 2.55636 2.55636C1.92471 3.1885 1.54395 3.92809 1.41407 4.77516C1.35699 5.14737 1.05838 5.45455 0.681818 5.45455V5.45455ZM2.18182 17.8182C1.45455 17.0909 0.909091 16.2652 0.545455 15.3409C0.181818 14.4167 0 13.4733 0 12.5109C0 11.5491 0.181818 10.6061 0.545455 9.68182C0.909091 8.75757 1.45455 7.93182 2.18182 7.20455L6.36364 3.02273C6.57576 2.81061 6.84454 2.69697 7.17 2.68182C7.49606 2.66667 7.77273 2.77273 8 3C8.21212 3.21212 8.31818 3.48091 8.31818 3.80636C8.31818 4.13242 8.21212 4.40151 8 4.61364L5.91644 6.6972C5.05172 7.56192 5.20615 9.05496 5.40909 10.2609V10.2609C5.52284 10.9374 5.35719 11.5689 4.91214 12.1555C4.75943 12.3568 4.75741 12.6438 4.93607 12.8224V12.8224C5.11134 12.9977 5.39712 13.0052 5.55415 12.8134C5.98737 12.2843 6.23842 11.6268 6.30727 10.8409V10.8409C6.43913 9.32507 6.36821 7.51815 7.44412 6.44225L12.4773 1.40909C12.7045 1.18182 12.9736 1.06818 13.2845 1.06818C13.5948 1.06818 13.8636 1.18182 14.0909 1.40909C14.303 1.62121 14.4167 1.88242 14.4318 2.19273C14.447 2.50364 14.3333 2.7803 14.0909 3.02273L9.4205 7.69313C9.25013 7.8635 9.24763 8.13895 9.41488 8.3124V8.3124C9.58648 8.49036 9.87069 8.49294 10.0455 8.31813L16 2.36364C16.2121 2.15152 16.4812 2.04545 16.8073 2.04545C17.1327 2.04545 17.4015 2.15152 17.6136 2.36364C17.8258 2.57576 17.9318 2.84455 17.9318 3.17C17.9318 3.49606 17.8258 3.76515 17.6136 3.97727L11.6705 9.9204C11.4894 10.1015 11.492 10.3959 11.6762 10.5738V10.5738C11.856 10.7473 12.1416 10.7448 12.3182 10.5681L17.2955 5.59091C17.5227 5.36364 17.7918 5.25 18.1027 5.25C18.413 5.25 18.6818 5.36364 18.9091 5.59091C19.1212 5.80303 19.2273 6.07182 19.2273 6.39727C19.2273 6.72333 19.1212 6.99242 18.9091 7.20455L13.2737 12.8184C13.0966 12.9948 13.0939 13.2806 13.2674 13.4604V13.4604C13.4452 13.6445 13.7393 13.6471 13.9202 13.4662L17.6136 9.77273C17.8561 9.5303 18.1327 9.41667 18.4436 9.43182C18.7539 9.44697 19.0152 9.56061 19.2273 9.77273C19.4394 9.98485 19.553 10.2464 19.5682 10.5573C19.5833 10.8676 19.4697 11.1439 19.2273 11.3864L12.7955 17.8182C12.0682 18.5455 11.2424 19.0909 10.3182 19.4545C9.39394 19.8182 8.45091 20 7.48909 20C6.52667 20 5.58333 19.8182 4.65909 19.4545C3.73485 19.0909 2.90909 18.5455 2.18182 17.8182Z" fill="url(#paint0_linear_21_152)"/>
<defs>
<linearGradient id="paint0_linear_21_152" x1="10" y1="0" x2="10" y2="20" gradientUnits="userSpaceOnUse">
<stop stop-color="#44DB4F"/>
<stop offset="1" stop-color="#9CFFA3"/>
</linearGradient>
</defs>
</svg>
