<svg width="31" height="31" viewBox="0 0 31 31" fill="none" xmlns="http://www.w3.org/2000/svg">
<path d="M10.3408 27.2406C9.98389 26.8944 9.77906 26.4207 9.77135 25.9236C9.76364 25.4265 9.95368 24.9466 10.2997 24.5896L19.4359 15.1656L10.0119 6.02935C9.66486 5.68106 9.46855 5.21042 9.4652 4.71879C9.46185 4.22716 9.65172 3.75389 9.99393 3.4009C10.3361 3.04791 10.8033 2.84345 11.2948 2.83156C11.7863 2.81966 12.2628 3.00128 12.6217 3.33731L23.3917 13.7784C23.7487 14.1245 23.9535 14.5983 23.9612 15.0954C23.9689 15.5925 23.7789 16.0723 23.4329 16.4294L12.9917 27.1994C12.6456 27.5564 12.1719 27.7612 11.6748 27.7689C11.1777 27.7766 10.6978 27.5866 10.3408 27.2406Z" fill="#44DB4F"/>
</svg>
