<svg width="42" height="31" viewBox="0 0 42 31" fill="none" xmlns="http://www.w3.org/2000/svg">
<path d="M12.4586 2.02345C12.3556 1.76686 12.3555 1.47908 12.4584 1.22245C12.5614 0.965824 12.759 0.761002 13.0086 0.652352C13.2619 0.546264 13.5458 0.545716 13.7995 0.650824C14.0532 0.755933 14.2567 0.958361 14.3664 1.21485L15.6727 4.46681C15.7285 4.59324 15.7585 4.73 15.7609 4.86871C15.7633 5.00743 15.738 5.14518 15.6865 5.27353C15.635 5.40189 15.5584 5.51814 15.4615 5.61518C15.3645 5.71223 15.2492 5.78801 15.1227 5.8379C15.0001 5.9003 14.8642 5.9305 14.7273 5.92579C14.5223 5.92551 14.3218 5.86375 14.1508 5.74815C13.9797 5.63255 13.8455 5.46819 13.7648 5.2754L12.4586 2.02345ZM2.59297 13.2559L5.77266 14.5918C5.89798 14.6458 6.03202 14.6756 6.16797 14.6797C6.4035 14.6758 6.63064 14.5896 6.81161 14.4354C6.99258 14.2812 7.11647 14.0682 7.16267 13.832C7.20886 13.5957 7.17459 13.3505 7.06554 13.1369C6.95649 12.9234 6.77924 12.7544 6.56328 12.6582L3.38359 11.3047C3.13271 11.1993 2.85133 11.1993 2.6004 11.3045C2.34947 11.4098 2.1492 11.612 2.04297 11.8672C1.93924 12.1263 1.9387 12.4166 2.04147 12.6761C2.14425 12.9356 2.34218 13.1436 2.59297 13.2559ZM35.3867 14.6797C35.5227 14.6756 35.6567 14.6458 35.782 14.5918L38.9617 13.2559C39.2125 13.1436 39.4104 12.9356 39.5132 12.6761C39.616 12.4166 39.6154 12.1263 39.5117 11.8672C39.4055 11.612 39.2052 11.4098 38.9543 11.3045C38.7034 11.1993 38.422 11.1993 38.1711 11.3047L34.9914 12.6582C34.7754 12.7544 34.5982 12.9234 34.4891 13.1369C34.3801 13.3505 34.3458 13.5957 34.392 13.832C34.4382 14.0682 34.5621 14.2812 34.7431 14.4354C34.924 14.5896 35.1512 14.6758 35.3867 14.6797ZM26.432 5.8379C26.5546 5.9003 26.6905 5.9305 26.8273 5.92579C27.0324 5.92551 27.2328 5.86375 27.4039 5.74815C27.575 5.63255 27.7092 5.46819 27.7898 5.2754L29.0961 2.02345C29.1991 1.76686 29.1992 1.47908 29.0962 1.22245C28.9933 0.965824 28.7956 0.761002 28.5461 0.652352C28.2928 0.546264 28.0089 0.545716 27.7552 0.650824C27.5015 0.755933 27.298 0.958361 27.1883 1.21485L25.882 4.46681C25.8262 4.59324 25.7961 4.73 25.7938 4.86871C25.7914 5.00743 25.8167 5.14518 25.8682 5.27353C25.9197 5.40189 25.9963 5.51814 26.0932 5.61518C26.1902 5.71223 26.3055 5.78801 26.432 5.8379ZM41.0586 22.625C41.0586 22.9047 40.9499 23.173 40.7565 23.3708C40.5632 23.5686 40.3008 23.6797 40.0273 23.6797H1.52734C1.25384 23.6797 0.991537 23.5686 0.79814 23.3708C0.604743 23.173 0.496094 22.9047 0.496094 22.625C0.496094 22.3453 0.604743 22.077 0.79814 21.8792C0.991537 21.6814 1.25384 21.5703 1.52734 21.5703H9.57109C9.31674 19.9148 9.41609 18.2226 9.86232 16.6101C10.3085 14.9976 11.0911 13.5031 12.156 12.2294C13.2209 10.9558 14.543 9.93322 16.0313 9.23208C17.5196 8.53094 19.1388 8.16788 20.7773 8.16788C22.4159 8.16788 24.0351 8.53094 25.5234 9.23208C27.0117 9.93322 28.3338 10.9558 29.3987 12.2294C30.4636 13.5031 31.2461 14.9976 31.6924 16.6101C32.1386 18.2226 32.2379 19.9148 31.9836 21.5703H40.0273C40.3008 21.5703 40.5632 21.6814 40.7565 21.8792C40.9499 22.077 41.0586 22.3453 41.0586 22.625ZM11.6508 21.5703H29.9039C30.0073 20.9904 30.0591 20.402 30.0586 19.8125C30.0586 17.295 29.0807 14.8806 27.3402 13.1005C25.5996 11.3204 23.2389 10.3203 20.7773 10.3203C18.3158 10.3203 15.9551 11.3204 14.2145 13.1005C12.4739 14.8806 11.4961 17.295 11.4961 19.8125C11.4956 20.402 11.5474 20.9904 11.6508 21.5703ZM34.5273 28.6016H7.02734C6.75384 28.6016 6.49154 28.7127 6.29814 28.9105C6.10474 29.1083 5.99609 29.3765 5.99609 29.6563C5.99609 29.936 6.10474 30.2042 6.29814 30.402C6.49154 30.5998 6.75384 30.7109 7.02734 30.7109H34.5273C34.8008 30.7109 35.0632 30.5998 35.2565 30.402C35.4499 30.2042 35.5586 29.936 35.5586 29.6563C35.5586 29.3765 35.4499 29.1083 35.2565 28.9105C35.0632 28.7127 34.8008 28.6016 34.5273 28.6016Z" fill="#330D72"/>
</svg>
